if (_typeface_js && _typeface_js.loadFace) _typeface_js.loadFace({"glyphs":{"S":{"x_min":51,"x_max":848,"ha":899,"o":"m 681 702 l 805 702 q 777 843 805 783 q 699 940 748 902 q 584 997 649 979 q 442 1016 519 1016 q 309 998 374 1016 q 194 945 244 981 q 112 855 143 910 q 82 725 82 800 q 109 612 82 657 q 181 538 136 567 q 283 492 226 510 q 399 462 340 475 q 514 436 458 449 q 616 404 571 424 q 688 351 661 383 q 716 268 716 320 q 693 179 716 214 q 635 124 671 144 q 554 96 599 104 q 464 88 509 88 q 356 101 409 88 q 264 144 303 115 q 200 219 224 174 q 176 327 176 264 l 51 327 q 83 170 51 236 q 172 62 116 104 q 303 -1 228 19 q 460 -22 377 -22 q 597 -6 528 -22 q 721 45 666 9 q 812 137 777 80 q 848 272 848 193 q 820 394 848 346 q 748 475 793 443 q 646 526 703 507 q 530 558 589 545 q 415 584 471 572 q 313 614 358 596 q 241 661 268 632 q 214 735 214 689 q 232 816 214 784 q 282 868 251 849 q 354 896 313 888 q 435 905 394 905 q 604 857 538 905 q 681 702 670 809 "},"¦":{"x_min":107,"x_max":201,"ha":308,"o":"m 201 571 l 201 918 l 107 918 l 107 571 l 201 571 m 107 224 l 107 -122 l 201 -122 l 201 224 l 107 224 "},"/":{"x_min":-23.609375,"x_max":487.5,"ha":463,"o":"m 386 1016 l -23 -22 l 76 -22 l 487 1016 l 386 1016 "},"̨":{"x_min":-201,"x_max":76.328125,"ha":0,"o":"m 12 4 l -43 4 q -126 -54 -95 -26 q -174 -107 -158 -83 q -196 -149 -191 -131 q -201 -176 -201 -166 q -185 -240 -201 -217 q -149 -274 -170 -263 q -107 -287 -128 -285 q -73 -290 -85 -290 q 9 -271 -30 -290 q 76 -204 48 -252 l 31 -179 q -2 -209 16 -198 q -54 -221 -22 -221 q -94 -202 -82 -221 q -107 -162 -107 -184 q -83 -94 -107 -133 q 12 4 -59 -55 "},"̋":{"x_min":-372.21875,"x_max":101.390625,"ha":0,"o":"m -44 1016 l -156 817 l -65 817 l 101 1016 l -44 1016 m -261 1016 l -372 817 l -281 817 l -115 1016 l -261 1016 "},"y":{"x_min":11.546875,"x_max":683.765625,"ha":694,"o":"m 371 -94 l 683 719 l 558 719 l 357 131 l 354 131 l 144 719 l 11 719 l 296 4 l 247 -116 q 208 -165 231 -148 q 150 -182 186 -182 q 115 -176 132 -182 q 81 -165 97 -170 l 81 -273 q 121 -283 100 -280 q 162 -286 142 -286 q 232 -275 203 -286 q 285 -242 261 -265 q 330 -183 310 -219 q 371 -94 350 -147 "},"̂":{"x_min":-359.71875,"x_max":55.5625,"ha":0,"o":"m -218 1016 l -359 817 l -254 817 l -156 950 l -61 817 l 55 817 l -88 1016 l -218 1016 "},"Á":{"x_min":-8.328125,"x_max":911.109375,"ha":900,"o":"m 484 1261 l 365 1063 l 454 1063 l 636 1261 l 484 1261 m 279 410 l 447 873 l 450 873 l 615 410 l 279 410 m 377 992 l -8 0 l 126 0 l 237 299 l 656 299 l 765 0 l 911 0 l 523 992 l 377 992 "},"g":{"x_min":50,"x_max":708,"ha":797,"o":"m 708 61 l 708 719 l 597 719 l 597 616 l 595 616 q 506 705 563 675 q 381 735 450 735 q 225 699 288 735 q 122 609 161 664 q 66 487 83 554 q 50 355 50 419 q 70 216 50 282 q 130 100 90 150 q 230 22 170 51 q 370 -6 290 -6 q 502 24 440 -6 q 594 123 563 55 l 597 123 l 597 75 q 585 -34 597 15 q 547 -120 573 -84 q 480 -175 520 -155 q 381 -196 439 -196 q 319 -189 352 -196 q 260 -169 287 -183 q 214 -133 233 -155 q 196 -79 196 -111 l 79 -79 q 106 -177 79 -137 q 177 -242 134 -217 q 271 -278 219 -267 q 374 -290 323 -290 q 627 -202 546 -290 q 708 61 708 -114 m 377 96 q 280 120 319 96 q 218 184 241 144 q 184 272 194 223 q 175 369 175 321 q 186 468 175 421 q 224 551 198 515 q 290 609 250 587 q 387 631 330 631 q 481 608 443 631 q 545 549 520 586 q 580 467 569 512 q 591 373 591 421 q 579 273 591 323 q 543 184 568 223 q 477 120 518 144 q 377 96 436 96 "},"́":{"x_min":-237.5,"x_max":33.328125,"ha":0,"o":"m -118 1016 l -237 817 l -148 817 l 33 1016 l -118 1016 "},"²":{"x_min":21,"x_max":449,"ha":463,"o":"m 31 771 l 125 771 q 150 867 125 825 q 239 909 176 909 q 321 882 288 909 q 355 811 355 856 q 345 757 355 780 q 315 713 335 733 q 264 673 295 693 q 193 630 233 654 q 128 590 159 611 q 74 542 98 569 q 35 478 50 515 q 21 389 21 441 l 440 389 l 440 465 l 113 465 q 136 505 119 487 q 178 540 154 523 q 233 573 203 556 q 292 608 263 590 q 349 644 321 624 q 399 687 378 663 q 435 741 421 711 q 449 809 449 770 q 433 884 449 851 q 388 939 417 916 q 322 973 360 961 q 243 985 285 985 q 88 925 146 985 q 31 771 31 866 "},"–":{"x_min":0,"x_max":694,"ha":694,"o":"m 0 442 l 0 331 l 694 331 l 694 442 l 0 442 "},"ë":{"x_min":51,"x_max":713.28125,"ha":745,"o":"m 180 968 l 180 823 l 305 823 l 305 968 l 180 968 m 441 968 l 441 823 l 566 823 l 566 968 l 441 968 m 586 428 l 175 428 q 191 506 175 469 q 233 571 206 543 q 296 615 259 599 q 380 631 333 631 q 462 615 425 631 q 526 571 499 599 q 569 507 553 544 q 586 428 586 469 m 700 228 l 584 228 q 520 122 568 157 q 398 87 473 87 q 296 107 339 87 q 225 159 253 126 q 185 234 198 192 q 173 324 173 276 l 713 324 q 698 461 713 389 q 646 594 684 533 q 545 695 608 655 q 386 735 482 735 q 252 707 313 735 q 145 629 190 679 q 75 511 100 579 q 51 361 51 443 q 72 210 51 279 q 137 90 94 140 q 243 12 180 40 q 393 -15 307 -15 q 596 46 515 -15 q 700 228 677 107 "},"ƒ":{"x_min":4.171875,"x_max":683.328125,"ha":772,"o":"m 663 888 l 683 992 l 580 992 q 436 942 491 992 q 366 812 381 892 l 330 623 l 204 623 l 186 529 l 313 529 l 216 16 q 197 -58 208 -30 q 165 -101 186 -86 q 111 -119 145 -115 q 23 -124 77 -124 l 4 -228 l 95 -228 q 195 -212 154 -228 q 268 -159 237 -197 q 321 -60 300 -122 q 359 96 343 2 l 436 529 l 575 529 l 594 623 l 452 623 l 495 815 q 524 869 504 851 q 581 888 544 888 l 663 888 "},"Î":{"x_min":-26.28125,"x_max":389.0625,"ha":360,"o":"m 115 1261 l -26 1063 l 79 1063 l 176 1196 l 272 1063 l 389 1063 l 244 1261 l 115 1261 m 114 992 l 114 0 l 246 0 l 246 992 l 114 992 "},"e":{"x_min":51,"x_max":713.28125,"ha":745,"o":"m 586 428 l 175 428 q 191 506 175 469 q 233 571 206 543 q 296 615 259 599 q 380 631 333 631 q 462 615 425 631 q 526 571 499 599 q 569 507 553 544 q 586 428 586 469 m 700 228 l 584 228 q 521 122 569 157 q 398 87 473 87 q 296 107 339 87 q 225 159 253 126 q 185 234 198 192 q 173 324 173 276 l 713 324 q 698 461 713 389 q 646 594 684 533 q 545 695 608 655 q 386 735 482 735 q 252 707 313 735 q 145 629 190 679 q 75 511 100 579 q 51 361 51 443 q 72 210 51 279 q 137 90 94 140 q 243 12 180 40 q 393 -15 307 -15 q 596 46 515 -15 q 700 228 677 107 "},"Ã":{"x_min":-8.328125,"x_max":911.109375,"ha":900,"o":"m 691 1233 l 619 1233 q 597 1192 612 1212 q 555 1173 583 1173 q 510 1181 533 1173 q 463 1201 487 1190 q 414 1219 440 1211 q 361 1228 388 1228 q 304 1215 327 1228 q 263 1182 280 1203 q 235 1134 247 1161 q 215 1076 223 1106 l 287 1076 q 308 1118 284 1102 q 354 1134 331 1134 q 397 1125 373 1134 q 447 1107 422 1117 q 496 1088 472 1096 q 538 1080 520 1080 q 604 1091 579 1080 q 648 1122 630 1103 q 691 1233 683 1171 m 279 410 l 447 873 l 450 873 l 615 410 l 279 410 m 377 992 l -8 0 l 126 0 l 237 299 l 656 299 l 765 0 l 911 0 l 523 992 l 377 992 "},"J":{"x_min":31,"x_max":613,"ha":721,"o":"m 613 247 l 613 992 l 481 992 l 481 267 q 446 136 481 185 q 322 88 412 88 q 242 102 274 88 q 194 143 211 117 q 169 206 176 169 q 163 285 163 242 l 163 327 l 31 327 l 31 265 q 106 51 31 124 q 319 -22 181 -22 q 459 0 403 -22 q 549 62 515 23 q 598 148 583 100 q 613 247 613 197 "},"»":{"x_min":90,"x_max":573,"ha":642,"o":"m 573 447 l 362 614 l 362 494 l 500 386 l 362 277 l 362 158 l 573 325 l 573 447 m 301 447 l 90 614 l 90 494 l 228 386 l 90 277 l 90 158 l 301 325 l 301 447 "},"̄":{"x_min":-387,"x_max":85,"ha":0,"o":"m -387 937 l -387 861 l 85 861 l 85 937 l -387 937 "},"©":{"x_min":33,"x_max":1077,"ha":1110,"o":"m 831 396 l 742 396 q 688 293 732 333 q 573 254 643 254 q 483 274 523 254 q 415 327 443 294 q 373 405 388 361 q 359 498 359 450 q 372 592 359 549 q 413 668 386 635 q 479 718 439 700 q 570 737 518 737 q 686 698 641 737 q 742 602 731 660 l 830 602 q 741 759 813 706 q 569 813 669 813 q 441 789 498 813 q 345 724 384 765 q 285 624 306 682 q 265 496 265 565 q 286 369 265 428 q 348 269 308 311 q 445 202 388 226 q 573 178 502 178 q 739 236 669 178 q 831 396 809 294 m 127 499 q 159 673 127 592 q 249 812 192 753 q 386 905 307 871 q 556 940 464 940 q 724 905 646 940 q 860 812 802 871 q 950 673 917 753 q 983 499 983 592 q 950 322 983 403 q 860 180 917 240 q 724 87 802 121 q 556 53 646 53 q 386 87 464 53 q 249 180 307 121 q 159 322 192 240 q 127 499 127 403 m 33 499 q 74 291 33 386 q 187 125 116 196 q 354 16 259 55 q 556 -22 449 -22 q 757 16 663 -22 q 922 125 852 55 q 1035 291 993 196 q 1077 499 1077 386 q 1035 703 1077 608 q 922 867 993 797 q 757 976 852 936 q 556 1016 663 1016 q 354 976 449 1016 q 187 867 259 936 q 74 703 116 797 q 33 499 33 608 "},"˘":{"x_min":-61.109375,"x_max":370.828125,"ha":308,"o":"m 6 1016 l -61 1016 q 4 873 -47 922 q 151 824 55 824 q 299 875 243 824 q 370 1016 355 926 l 300 1016 q 250 931 279 962 q 162 900 222 900 q 6 1016 40 900 "},"ò":{"x_min":50,"x_max":747,"ha":797,"o":"m 212 1015 l 394 817 l 483 817 l 363 1015 l 212 1015 m 175 358 q 192 474 175 424 q 240 560 209 525 q 311 612 270 594 q 398 631 352 631 q 485 612 444 631 q 556 560 526 594 q 604 474 587 525 q 622 358 622 424 q 604 242 622 293 q 556 157 587 192 q 485 105 526 123 q 398 87 444 87 q 311 105 352 87 q 240 157 270 123 q 192 242 209 192 q 175 358 175 293 m 50 358 q 72 211 50 279 q 138 92 94 143 q 248 13 183 41 q 398 -15 313 -15 q 549 13 484 -15 q 658 92 613 41 q 724 211 702 143 q 747 358 747 279 q 724 506 747 437 q 658 625 702 575 q 549 705 613 676 q 398 735 484 735 q 248 705 313 735 q 138 625 183 676 q 72 506 94 575 q 50 358 50 437 "},"^":{"x_min":69.4375,"x_max":763.890625,"ha":833,"o":"m 372 969 l 69 367 l 168 367 l 415 867 l 666 367 l 763 367 l 461 969 l 372 969 "},"«":{"x_min":69,"x_max":552,"ha":642,"o":"m 69 325 l 280 158 l 280 277 l 141 386 l 280 494 l 280 614 l 69 447 l 69 325 m 341 325 l 552 158 l 552 277 l 413 386 l 552 494 l 552 614 l 341 447 l 341 325 "},"D":{"x_min":108,"x_max":925,"ha":978,"o":"m 240 111 l 240 881 l 462 881 q 616 855 554 881 q 718 780 679 829 q 775 660 758 730 q 793 501 793 590 q 774 345 793 409 q 726 237 755 280 q 660 169 697 194 q 585 131 623 144 q 515 114 548 117 q 459 111 481 111 l 240 111 m 108 992 l 108 0 l 448 0 q 662 34 572 0 q 811 135 752 69 q 897 298 869 201 q 925 519 925 394 q 801 875 925 758 q 448 992 677 992 l 108 992 "},"ÿ":{"x_min":11.546875,"x_max":684.046875,"ha":695,"o":"m 155 967 l 155 822 l 280 822 l 280 967 l 155 967 m 416 967 l 416 822 l 541 822 l 541 967 l 416 967 m 371 -94 l 684 719 l 559 719 l 357 131 l 354 131 l 145 719 l 11 719 l 296 4 l 248 -116 q 209 -165 231 -148 q 150 -182 186 -182 q 115 -176 132 -182 q 81 -165 97 -170 l 81 -273 q 121 -283 100 -280 q 163 -286 142 -286 q 232 -275 203 -286 q 286 -242 261 -265 q 330 -183 310 -219 q 371 -94 350 -147 "},"í":{"x_min":69.609375,"x_max":340.390625,"ha":308,"o":"m 189 1015 l 69 817 l 158 817 l 340 1015 l 189 1015 m 96 0 l 214 0 l 214 718 l 96 718 l 96 0 "},"ˆ":{"x_min":-52.78125,"x_max":362.5,"ha":308,"o":"m 88 1016 l -52 817 l 52 817 l 150 950 l 245 817 l 362 817 l 218 1016 l 88 1016 "},"w":{"x_min":23.609375,"x_max":1029.171875,"ha":1053,"o":"m 800 0 l 1029 718 l 906 718 l 745 131 l 743 131 l 593 718 l 463 718 l 319 131 l 316 131 l 154 718 l 23 718 l 254 0 l 381 0 l 526 571 l 529 571 l 675 0 l 800 0 "},"$":{"x_min":40,"x_max":729,"ha":772,"o":"m 154 303 l 40 303 q 124 74 40 157 q 349 -22 209 -8 l 349 -136 l 425 -136 l 425 -22 q 547 5 491 -16 q 642 66 602 27 q 706 157 683 104 q 729 277 729 209 q 704 387 729 341 q 645 464 680 433 q 573 511 610 494 q 508 536 536 529 l 425 558 l 425 900 q 580 739 552 876 l 698 739 q 604 930 670 861 q 425 1014 537 1000 l 425 1108 l 349 1108 l 349 1013 q 237 990 289 1013 q 146 930 184 968 q 86 839 108 891 q 64 724 64 787 q 80 620 64 663 q 132 546 97 576 q 221 495 168 516 q 349 455 275 473 l 349 87 q 209 155 264 101 q 154 303 154 209 m 425 89 l 425 436 q 495 411 462 425 q 552 379 529 398 q 590 332 576 359 q 604 264 604 305 q 590 187 604 220 q 553 132 577 154 q 496 100 529 111 q 425 89 463 89 m 349 904 l 349 579 q 285 601 314 589 q 234 631 255 614 q 200 674 212 648 q 189 736 189 700 q 235 856 189 815 q 349 904 282 897 "},"\\":{"x_min":-23.609375,"x_max":487.5,"ha":463,"o":"m 487 -22 l 76 1016 l -23 1016 l 386 -22 l 487 -22 "},"Ì":{"x_min":-4.0625,"x_max":265.453125,"ha":360,"o":"m -4 1261 l 176 1063 l 265 1063 l 145 1261 l -4 1261 m 114 992 l 114 0 l 246 0 l 246 992 l 114 992 "},"µ":{"x_min":89,"x_max":683,"ha":772,"o":"m 683 0 l 683 718 l 565 718 l 565 312 q 551 222 565 263 q 512 151 538 181 q 446 103 485 120 q 352 87 406 87 q 245 126 284 87 q 207 232 207 165 l 207 718 l 89 718 l 89 -274 l 207 -274 l 207 36 l 209 36 q 259 -3 227 8 q 336 -15 291 -15 q 473 15 415 -15 q 569 114 531 47 l 571 114 l 571 0 l 683 0 "},"Ç":{"x_min":60,"x_max":947.71875,"ha":1003,"o":"m 806 694 l 938 694 q 890 833 926 773 q 800 934 854 893 q 676 995 746 974 q 529 1016 607 1016 q 327 974 415 1016 q 180 862 239 933 q 90 695 121 791 q 60 491 60 600 q 85 296 60 386 q 162 138 111 206 q 290 27 212 70 q 472 -14 368 -14 l 404 -106 l 427 -145 q 455 -137 443 -139 q 484 -134 468 -134 q 531 -146 512 -134 q 550 -177 550 -158 q 541 -197 550 -190 q 520 -211 533 -205 q 493 -218 508 -216 q 463 -221 477 -221 q 418 -215 441 -221 q 379 -202 395 -209 l 354 -263 q 417 -282 386 -274 q 481 -290 448 -290 q 541 -283 511 -290 q 597 -262 572 -277 q 638 -224 622 -248 q 654 -166 654 -201 q 617 -90 654 -115 q 537 -65 581 -65 q 491 -74 505 -65 l 488 -71 l 529 -19 q 820 85 712 -19 q 947 374 928 190 l 813 374 q 792 260 813 312 q 734 169 771 207 q 646 109 697 131 q 530 88 595 88 q 377 121 441 88 q 272 210 313 154 q 211 342 230 267 q 192 503 192 418 q 211 653 192 581 q 271 782 230 725 q 376 871 312 838 q 528 905 439 905 q 708 852 632 905 q 806 694 783 799 "},"’":{"x_min":115,"x_max":269,"ha":386,"o":"m 115 992 l 115 838 l 196 838 q 193 789 196 814 q 180 746 189 765 q 155 714 170 726 q 116 703 139 703 l 116 634 q 184 650 156 634 q 232 695 213 667 q 259 759 250 722 q 269 837 269 796 l 269 992 l 115 992 "},"-":{"x_min":69,"x_max":470,"ha":539,"o":"m 69 442 l 69 331 l 470 331 l 470 442 l 69 442 "},"Q":{"x_min":53,"x_max":1003,"ha":1056,"o":"m 625 283 l 555 203 l 665 115 q 528 88 598 88 q 372 123 437 88 q 265 217 307 158 q 204 348 223 275 q 185 496 185 421 q 204 644 185 571 q 265 775 223 717 q 372 869 307 834 q 528 905 437 905 q 683 869 618 905 q 790 775 748 834 q 851 644 832 717 q 871 496 871 571 q 843 320 871 404 q 757 178 815 236 l 625 283 m 916 -84 l 983 -1 l 852 101 q 965 279 927 176 q 1003 496 1003 382 q 973 691 1003 597 q 883 857 943 785 q 734 972 823 929 q 528 1016 646 1016 q 321 972 409 1016 q 172 857 232 929 q 82 691 112 785 q 53 496 53 597 q 82 301 53 394 q 172 135 112 207 q 321 20 232 62 q 527 -22 409 -22 q 765 36 665 -22 l 916 -84 "},"M":{"x_min":111,"x_max":1099,"ha":1210,"o":"m 111 992 l 111 0 l 236 0 l 236 825 l 238 825 l 548 0 l 661 0 l 971 825 l 974 825 l 974 0 l 1099 0 l 1099 992 l 918 992 l 604 158 l 291 992 l 111 992 "},"C":{"x_min":60,"x_max":947.71875,"ha":1003,"o":"m 806 694 l 938 694 q 890 833 926 773 q 800 934 854 893 q 676 995 746 974 q 529 1016 607 1016 q 327 975 415 1016 q 180 863 239 934 q 90 697 121 792 q 60 493 60 601 q 88 290 60 385 q 173 126 116 196 q 317 17 230 57 q 518 -22 403 -22 q 818 82 708 -22 q 947 374 928 186 l 813 374 q 792 260 813 312 q 734 169 771 207 q 646 109 697 131 q 530 88 595 88 q 377 121 441 88 q 272 210 313 154 q 211 342 230 267 q 192 503 192 418 q 211 653 192 581 q 271 782 230 725 q 376 871 312 838 q 528 905 439 905 q 708 852 632 905 q 806 694 783 799 "},"!":{"x_min":103,"x_max":257,"ha":360,"o":"m 103 154 l 103 0 l 257 0 l 257 154 l 103 154 m 228 686 l 228 992 l 131 992 l 131 686 l 131 254 l 228 254 l 228 686 "},"ç":{"x_min":50,"x_max":702.390625,"ha":745,"o":"m 576 488 l 698 488 q 664 598 691 551 q 597 675 638 644 q 503 720 556 705 q 388 735 449 735 q 240 705 304 735 q 133 622 176 675 q 70 500 91 570 q 50 348 50 429 q 69 207 50 272 q 126 96 88 143 q 220 19 163 48 q 349 -9 276 -9 l 276 -106 l 299 -145 q 327 -137 315 -140 q 356 -134 340 -134 q 403 -146 384 -134 q 422 -177 422 -158 q 413 -198 422 -190 q 392 -211 405 -205 q 365 -218 380 -216 q 335 -221 349 -221 q 290 -215 313 -221 q 251 -202 267 -209 l 226 -263 q 289 -282 258 -274 q 353 -290 320 -290 q 413 -283 383 -290 q 469 -262 444 -277 q 510 -224 494 -248 q 526 -166 526 -201 q 489 -90 526 -115 q 409 -65 453 -65 q 363 -74 377 -65 l 360 -71 l 406 -11 q 607 62 532 -11 q 702 263 682 135 l 581 263 q 521 133 570 179 q 384 88 471 88 q 288 110 329 88 q 223 169 248 132 q 186 253 198 206 q 175 350 175 300 q 186 455 175 404 q 222 544 197 506 q 291 607 248 583 q 398 631 334 631 q 517 593 473 631 q 576 488 562 556 "},"È":{"x_min":108,"x_max":796.9375,"ha":848,"o":"m 238 1261 l 420 1063 l 509 1063 l 390 1261 l 238 1261 m 108 992 l 108 0 l 796 0 l 796 111 l 240 111 l 240 454 l 755 454 l 755 565 l 240 565 l 240 881 l 792 881 l 792 992 l 108 992 "},"{":{"x_min":67,"x_max":429,"ha":462,"o":"m 429 932 l 429 1015 l 331 1015 q 279 1003 305 1015 q 231 968 252 991 q 195 911 209 945 q 182 833 182 877 l 182 580 q 172 513 182 543 q 146 461 162 482 q 109 427 130 439 q 67 416 89 416 l 67 322 q 109 310 89 322 q 146 278 130 299 q 172 227 162 258 q 182 159 182 196 l 182 -92 q 195 -170 182 -136 q 231 -227 209 -204 q 279 -262 252 -250 q 331 -274 305 -274 l 429 -274 l 429 -191 l 359 -191 q 326 -180 338 -191 q 306 -152 313 -170 q 295 -113 298 -135 q 293 -71 293 -92 l 293 181 q 278 269 293 234 q 244 325 263 303 q 204 356 225 346 q 172 367 184 366 l 172 371 q 204 385 184 374 q 244 418 225 396 q 278 475 263 441 q 293 557 293 509 l 293 812 q 295 856 293 834 q 306 894 298 877 q 326 921 313 911 q 359 932 338 932 l 429 932 "},"X":{"x_min":0,"x_max":850,"ha":849,"o":"m 344 509 l 0 0 l 147 0 l 422 409 l 688 0 l 850 0 l 501 509 l 829 992 l 681 992 l 423 604 l 176 992 l 18 992 l 344 509 "},"ô":{"x_min":50,"x_max":747,"ha":797,"o":"m 333 1015 l 190 817 l 297 817 l 394 950 l 490 817 l 606 817 l 462 1015 l 333 1015 m 175 358 q 192 474 175 424 q 240 560 209 525 q 311 612 270 594 q 398 631 352 631 q 485 612 444 631 q 556 560 526 594 q 604 474 587 525 q 622 358 622 424 q 604 242 622 293 q 556 157 587 192 q 485 105 526 123 q 398 87 444 87 q 311 105 352 87 q 240 157 270 123 q 192 242 209 192 q 175 358 175 293 m 50 358 q 72 211 50 279 q 138 92 94 143 q 248 13 183 41 q 398 -15 313 -15 q 549 13 484 -15 q 658 92 613 41 q 724 211 702 143 q 747 358 747 279 q 724 506 747 437 q 658 625 702 575 q 549 705 613 676 q 398 735 484 735 q 248 705 313 735 q 138 625 183 676 q 72 506 94 575 q 50 358 50 437 "},"¼":{"x_min":50.28125,"x_max":1088,"ha":1159,"o":"m 304 389 l 304 985 l 234 985 q 169 906 221 926 q 50 886 118 886 l 50 817 l 210 817 l 210 389 l 304 389 m 812 1007 l 208 -37 l 297 -37 l 901 1007 l 812 1007 m 709 210 l 915 478 l 918 478 l 918 210 l 709 210 m 1004 210 l 1004 596 l 933 596 l 642 214 l 642 134 l 918 134 l 918 0 l 1004 0 l 1004 134 l 1088 134 l 1088 210 l 1004 210 "},"#":{"x_min":47,"x_max":725,"ha":772,"o":"m 320 589 l 492 589 l 463 380 l 291 380 l 320 589 m 181 286 l 141 0 l 237 0 l 277 286 l 449 286 l 409 0 l 505 0 l 545 286 l 686 286 l 686 380 l 559 380 l 588 589 l 725 589 l 725 683 l 601 683 l 641 967 l 545 967 l 505 683 l 333 683 l 373 967 l 277 967 l 237 683 l 83 683 l 83 589 l 224 589 l 195 380 l 47 380 l 47 286 l 181 286 "},"Ê":{"x_min":108,"x_max":796.9375,"ha":848,"o":"m 359 1261 l 216 1063 l 323 1063 l 420 1196 l 516 1063 l 633 1063 l 488 1261 l 359 1261 m 108 992 l 108 0 l 796 0 l 796 111 l 240 111 l 240 454 l 755 454 l 755 565 l 240 565 l 240 881 l 792 881 l 792 992 l 108 992 "},")":{"x_min":-12.9375,"x_max":294,"ha":359,"o":"m -12 -274 l 75 -274 q 239 35 184 -130 q 294 364 294 201 q 278 539 294 456 q 234 703 263 623 q 166 860 206 783 q 75 1015 125 937 l -12 1015 q 126 697 84 855 q 169 364 169 539 q 127 39 169 195 q -12 -274 85 -117 "},"Å":{"x_min":-8.390625,"x_max":911.171875,"ha":900,"o":"m 293 1166 q 305 1105 293 1134 q 339 1055 318 1077 q 389 1021 361 1034 q 450 1009 418 1009 q 510 1021 481 1009 q 560 1055 538 1034 q 594 1105 581 1077 q 607 1166 607 1134 q 594 1226 607 1197 q 560 1276 581 1254 q 510 1310 538 1297 q 450 1323 481 1323 q 389 1310 418 1323 q 339 1276 361 1297 q 305 1226 318 1254 q 293 1166 293 1197 m 356 1166 q 382 1233 356 1206 q 450 1260 409 1260 q 517 1233 490 1260 q 544 1166 544 1206 q 517 1098 544 1125 q 450 1072 490 1072 q 382 1098 409 1072 q 356 1166 356 1125 m 279 410 l 447 873 l 450 873 l 615 410 l 279 410 m 378 992 l -8 0 l 126 0 l 237 299 l 657 299 l 765 0 l 911 0 l 523 992 l 378 992 "},"ø":{"x_min":47.21875,"x_max":749.78125,"ha":797,"o":"m 666 615 l 749 707 l 712 743 l 631 653 q 530 714 587 693 q 398 735 473 735 q 248 705 313 735 q 138 625 183 676 q 72 506 94 575 q 50 358 50 437 q 70 216 50 282 q 133 98 91 150 l 47 3 l 86 -28 l 169 62 q 269 5 212 25 q 398 -15 326 -15 q 549 13 484 -15 q 658 92 613 41 q 724 211 702 143 q 747 358 747 279 q 726 501 747 435 q 666 615 706 567 m 247 150 l 583 524 q 611 451 601 492 q 622 358 622 410 q 604 242 622 293 q 556 157 587 192 q 485 105 526 123 q 398 87 444 87 q 247 150 309 87 m 552 565 l 216 190 q 186 267 197 225 q 175 358 175 308 q 192 474 175 424 q 240 560 209 525 q 311 612 270 594 q 398 631 352 631 q 552 565 491 631 "},"â":{"x_min":50,"x_max":725,"ha":746,"o":"m 308 1015 l 165 817 l 271 817 l 369 950 l 464 817 l 581 817 l 437 1015 l 308 1015 m 725 3 l 725 94 q 688 87 704 87 q 655 107 660 87 q 651 168 651 126 l 651 538 q 627 639 651 600 q 564 699 603 678 q 477 728 525 721 q 381 735 429 735 q 266 722 321 735 q 170 681 212 710 q 104 607 129 653 q 79 495 79 561 l 197 495 q 247 602 197 574 q 373 631 297 631 q 430 626 401 631 q 481 610 458 622 q 519 574 505 597 q 534 511 534 550 q 514 460 534 478 q 462 434 495 443 q 385 420 428 425 q 292 406 341 415 q 203 385 246 397 q 125 348 159 372 q 70 285 91 324 q 50 185 50 246 q 68 92 50 130 q 120 30 87 54 q 195 -4 152 5 q 287 -15 238 -15 q 426 10 362 -15 q 540 94 491 36 q 567 10 540 36 q 640 -15 594 -15 q 725 3 694 -15 m 533 371 l 533 250 q 520 196 533 225 q 481 144 508 168 q 413 103 455 119 q 313 87 372 87 q 261 93 287 87 q 217 111 236 98 q 186 144 198 123 q 175 193 175 164 q 195 263 175 237 q 247 303 215 289 q 319 323 279 317 q 399 334 359 329 q 474 346 438 339 q 533 371 510 354 "},"}":{"x_min":33,"x_max":395,"ha":462,"o":"m 33 -191 l 33 -274 l 130 -274 q 182 -262 156 -274 q 230 -227 209 -250 q 266 -170 252 -204 q 280 -92 280 -136 l 280 159 q 289 225 280 195 q 315 276 299 255 q 352 310 331 298 q 395 322 372 322 l 395 416 q 352 427 372 416 q 315 459 331 438 q 289 511 299 481 q 280 580 280 542 l 280 833 q 266 911 280 877 q 230 968 252 945 q 182 1003 209 991 q 130 1015 156 1015 l 33 1015 l 33 932 l 102 932 q 135 921 123 932 q 155 893 148 911 q 166 854 163 876 q 169 809 169 833 l 169 557 q 183 470 169 505 q 217 414 198 435 q 257 382 236 392 q 290 371 277 373 l 290 367 q 257 353 277 364 q 217 320 236 342 q 183 264 198 298 q 169 181 169 230 l 169 -71 q 166 -115 169 -93 q 155 -153 163 -136 q 135 -180 148 -170 q 102 -191 123 -191 l 33 -191 "},"‰":{"x_min":100,"x_max":1494,"ha":1594,"o":"m 1190 219 q 1194 274 1190 246 q 1211 326 1199 303 q 1244 365 1223 350 q 1295 381 1265 381 q 1343 364 1324 381 q 1372 322 1362 347 q 1386 269 1383 297 q 1390 218 1390 242 q 1385 164 1390 193 q 1370 113 1381 136 q 1339 75 1359 90 q 1290 60 1320 60 q 1237 74 1258 60 q 1207 112 1217 89 q 1193 164 1196 136 q 1190 219 1190 193 m 1086 215 q 1097 123 1086 165 q 1133 50 1108 80 q 1196 2 1158 19 q 1288 -15 1234 -15 q 1371 -1 1331 -15 q 1438 46 1410 11 q 1481 129 1469 83 q 1494 222 1494 175 q 1482 315 1494 272 q 1447 389 1471 358 q 1385 438 1423 420 q 1291 457 1346 457 q 1196 438 1235 457 q 1132 386 1156 419 q 1097 309 1108 354 q 1086 215 1086 265 m 711 219 q 715 274 711 246 q 732 326 720 303 q 765 365 744 350 q 816 381 786 381 q 864 364 845 381 q 893 322 883 347 q 907 269 904 297 q 911 218 911 242 q 906 164 911 193 q 891 113 902 136 q 861 75 880 90 q 811 60 841 60 q 758 74 779 60 q 728 112 738 89 q 714 164 717 136 q 711 219 711 193 m 607 215 q 618 123 607 165 q 654 50 629 80 q 717 2 679 19 q 809 -15 755 -15 q 892 -1 852 -15 q 959 46 931 11 q 1002 129 990 83 q 1015 222 1015 175 q 1003 315 1015 272 q 968 389 992 358 q 906 438 944 420 q 812 457 867 457 q 717 438 756 457 q 653 386 677 419 q 618 309 629 354 q 607 215 607 265 m 872 1003 l 124 -29 l 244 -29 l 990 1003 l 872 1003 m 204 747 q 208 802 204 774 q 225 854 213 831 q 258 893 237 878 q 309 909 279 909 q 357 892 338 909 q 386 850 376 875 q 400 797 397 825 q 404 746 404 770 q 399 692 404 721 q 384 641 395 664 q 353 603 373 618 q 304 588 334 588 q 251 602 272 588 q 221 640 231 617 q 207 692 210 664 q 204 747 204 721 m 100 743 q 111 651 100 693 q 147 577 122 609 q 210 529 172 546 q 302 512 248 512 q 385 525 345 512 q 452 574 424 539 q 495 657 483 611 q 508 750 508 703 q 496 843 508 800 q 461 917 485 886 q 399 966 437 948 q 305 985 360 985 q 210 966 249 985 q 146 914 170 947 q 111 837 122 882 q 100 743 100 793 "},"Ä":{"x_min":-8.265625,"x_max":911.046875,"ha":900,"o":"m 257 1213 l 257 1068 l 382 1068 l 382 1213 l 257 1213 m 518 1213 l 518 1068 l 643 1068 l 643 1213 l 518 1213 m 279 410 l 447 873 l 450 873 l 615 410 l 279 410 m 377 992 l -8 0 l 126 0 l 237 299 l 656 299 l 765 0 l 911 0 l 523 992 l 377 992 "},"¸":{"x_min":7.15625,"x_max":307,"ha":308,"o":"m 32 -202 l 7 -263 q 70 -282 39 -274 q 134 -290 101 -290 q 194 -283 164 -290 q 250 -262 225 -277 q 291 -224 275 -248 q 307 -166 307 -201 q 270 -90 307 -115 q 190 -65 234 -65 q 144 -74 158 -65 l 141 -72 l 200 0 l 141 0 l 57 -107 l 80 -146 q 108 -137 96 -140 q 137 -135 121 -135 q 184 -146 165 -135 q 203 -178 203 -158 q 194 -198 203 -190 q 173 -211 186 -205 q 146 -218 161 -216 q 116 -221 130 -221 q 71 -215 94 -221 q 32 -202 48 -209 "},"a":{"x_min":50,"x_max":725,"ha":746,"o":"m 725 3 l 725 94 q 688 87 704 87 q 655 107 660 87 q 651 168 651 126 l 651 538 q 627 639 651 600 q 564 699 603 678 q 477 728 525 721 q 381 735 429 735 q 266 722 321 735 q 170 681 212 710 q 104 607 129 653 q 79 495 79 561 l 197 495 q 247 602 197 574 q 373 631 297 631 q 430 626 401 631 q 481 610 458 622 q 519 574 505 597 q 534 511 534 550 q 514 460 534 478 q 462 434 495 443 q 385 420 428 425 q 292 406 341 415 q 203 385 246 397 q 125 348 159 372 q 70 285 91 324 q 50 185 50 246 q 68 92 50 130 q 120 30 87 54 q 195 -4 152 5 q 287 -15 238 -15 q 426 10 362 -15 q 540 94 491 36 q 567 10 540 36 q 640 -15 594 -15 q 725 3 694 -15 m 533 371 l 533 250 q 520 196 533 225 q 481 144 508 168 q 413 103 455 119 q 313 87 372 87 q 261 93 287 87 q 217 111 236 98 q 186 144 198 123 q 175 193 175 164 q 195 263 175 237 q 247 303 215 289 q 319 323 279 317 q 399 334 359 329 q 474 346 438 339 q 533 371 510 354 "},"—":{"x_min":181,"x_max":1209,"ha":1390,"o":"m 181 442 l 181 331 l 1209 331 l 1209 442 l 181 442 "},"=":{"x_min":67,"x_max":767,"ha":834,"o":"m 67 258 l 67 164 l 767 164 l 767 258 l 67 258 m 767 445 l 767 539 l 67 539 l 67 445 l 767 445 "},"N":{"x_min":107,"x_max":897,"ha":1003,"o":"m 107 992 l 107 0 l 232 0 l 232 796 l 234 796 l 752 0 l 897 0 l 897 992 l 772 992 l 772 188 l 769 188 l 247 992 l 107 992 "},"˚":{"x_min":-1,"x_max":312,"ha":309,"o":"m -1 920 q 11 859 -1 888 q 44 809 24 831 q 94 775 65 788 q 154 763 122 763 q 215 775 186 763 q 265 809 243 788 q 299 859 286 831 q 312 920 312 888 q 299 980 312 951 q 265 1030 286 1008 q 215 1064 243 1052 q 154 1077 186 1077 q 94 1064 122 1077 q 44 1030 65 1052 q 11 980 24 1008 q -1 920 -1 951 m 60 920 q 87 987 60 960 q 154 1014 114 1014 q 221 987 194 1014 q 249 920 249 960 q 221 852 249 879 q 154 826 194 826 q 87 852 114 826 q 60 920 60 879 "},"ú":{"x_min":89,"x_max":683,"ha":772,"o":"m 420 1016 l 301 817 l 390 817 l 571 1016 l 420 1016 m 683 0 l 683 718 l 565 718 l 565 312 q 551 223 565 263 q 512 151 538 182 q 446 104 485 121 q 352 87 406 87 q 245 126 284 87 q 207 232 207 165 l 207 719 l 89 719 l 89 246 q 100 140 89 187 q 141 57 112 92 q 218 3 170 22 q 336 -15 265 -15 q 473 16 415 -15 q 569 114 531 47 l 571 114 l 571 0 l 683 0 "},"⁄":{"x_min":-229.171875,"x_max":462.5,"ha":232,"o":"m 373 1007 l -229 -38 l -140 -38 l 462 1007 l 373 1007 "},"2":{"x_min":36,"x_max":686,"ha":772,"o":"m 58 636 l 177 636 q 187 724 177 680 q 221 803 197 768 q 282 859 245 837 q 370 881 318 881 q 444 868 409 881 q 504 832 478 855 q 545 776 530 808 q 561 703 561 743 q 545 612 561 651 q 497 540 529 573 q 419 474 466 506 q 309 402 371 441 q 209 337 257 372 q 123 256 161 302 q 60 149 85 211 q 36 0 36 87 l 676 0 l 676 104 l 170 104 q 205 185 178 149 q 270 251 232 220 q 355 308 309 281 q 446 363 401 335 q 535 424 492 392 q 612 496 578 456 q 665 586 645 536 q 686 701 686 636 q 661 823 686 770 q 595 912 637 876 q 498 966 554 947 q 378 985 442 985 q 239 958 300 985 q 137 885 178 932 q 77 775 96 839 q 58 636 58 711 "},"ü":{"x_min":89,"x_max":683,"ha":772,"o":"m 193 968 l 193 823 l 318 823 l 318 968 l 193 968 m 454 968 l 454 823 l 579 823 l 579 968 l 454 968 m 683 0 l 683 718 l 565 718 l 565 312 q 551 223 565 263 q 512 151 538 182 q 446 104 485 121 q 352 87 406 87 q 245 126 284 87 q 207 232 207 165 l 207 719 l 89 719 l 89 246 q 100 140 89 187 q 141 57 112 92 q 218 3 170 22 q 336 -15 265 -15 q 473 16 415 -15 q 569 114 531 47 l 571 114 l 571 0 l 683 0 "},"¯":{"x_min":-80,"x_max":392,"ha":309,"o":"m -80 937 l -80 861 l 392 861 l 392 937 l -80 937 "},"\t":{"x_min":0,"x_max":0,"ha":386},"Z":{"x_min":31,"x_max":820,"ha":849,"o":"m 31 111 l 31 0 l 820 0 l 820 111 l 187 111 l 803 881 l 803 992 l 78 992 l 78 881 l 647 881 l 31 111 "},"u":{"x_min":89,"x_max":683,"ha":772,"o":"m 683 0 l 683 718 l 565 718 l 565 312 q 551 223 565 263 q 512 151 538 182 q 446 104 485 121 q 352 87 406 87 q 245 126 284 87 q 207 232 207 165 l 207 719 l 89 719 l 89 246 q 100 140 89 187 q 141 57 112 92 q 218 3 170 22 q 336 -15 265 -15 q 473 16 415 -15 q 569 114 531 47 l 571 114 l 571 0 l 683 0 "},"˜":{"x_min":-79.171875,"x_max":395.828125,"ha":308,"o":"m 395 988 l 323 988 q 302 946 316 966 q 259 927 287 927 q 214 935 237 927 q 168 955 191 944 q 118 973 144 965 q 65 982 93 982 q 9 969 33 982 q -30 936 -13 957 q -59 888 -47 915 q -79 830 -70 860 l -6 830 q 12 872 -9 856 q 58 888 34 888 q 102 879 77 888 q 151 861 126 871 q 200 842 176 850 q 243 834 225 834 q 309 845 283 834 q 352 876 334 857 q 395 988 387 925 "},"Ó":{"x_min":53,"x_max":1003,"ha":1056,"o":"m 562 1261 l 443 1063 l 532 1063 l 714 1261 l 562 1261 m 185 496 q 204 644 185 571 q 265 775 223 717 q 372 869 307 834 q 528 905 437 905 q 683 869 618 905 q 790 775 748 834 q 851 644 832 717 q 871 496 871 571 q 851 348 871 421 q 790 217 832 275 q 683 123 748 158 q 528 88 618 88 q 372 123 437 88 q 265 217 307 158 q 204 348 223 275 q 185 496 185 421 m 53 496 q 82 301 53 394 q 172 135 112 207 q 321 20 232 62 q 528 -22 409 -22 q 734 20 646 -22 q 883 135 823 62 q 973 301 943 207 q 1003 496 1003 394 q 973 691 1003 597 q 883 857 943 785 q 734 972 823 929 q 528 1016 646 1016 q 321 972 409 1016 q 172 857 232 929 q 82 691 112 785 q 53 496 53 597 "},"k":{"x_min":96,"x_max":720.9375,"ha":721,"o":"m 96 992 l 96 0 l 214 0 l 214 272 l 325 374 l 570 0 l 720 0 l 415 456 l 700 718 l 541 718 l 214 404 l 214 992 l 96 992 "},"ˇ":{"x_min":-52.78125,"x_max":362.5,"ha":308,"o":"m 219 817 l 362 1016 l 255 1016 l 158 882 l 62 1016 l -52 1016 l 90 817 l 219 817 "},"Ù":{"x_min":103,"x_max":900,"ha":1003,"o":"m 315 1262 l 497 1063 l 586 1063 l 466 1262 l 315 1262 m 900 358 l 900 992 l 768 992 l 768 358 q 702 156 768 225 q 509 88 636 88 q 305 156 376 88 q 235 358 235 225 l 235 992 l 103 992 l 103 358 q 210 68 103 159 q 509 -22 318 -22 q 798 73 697 -22 q 900 358 900 168 "},"€":{"x_min":18,"x_max":774.5,"ha":772,"o":"m 774 919 q 523 1007 649 1007 q 255 894 359 1007 q 129 625 162 795 l 54 625 l 18 540 l 119 540 q 118 519 118 530 q 118 495 118 508 q 118 481 118 488 q 119 468 118 474 l 55 468 l 18 383 l 124 383 q 523 -21 183 -21 q 737 38 643 -21 l 737 184 q 641 111 678 130 q 523 85 589 85 q 259 383 305 85 l 562 383 l 598 468 l 252 468 q 251 481 251 474 q 251 497 251 488 q 251 517 251 506 q 252 540 251 528 l 617 540 l 655 625 l 262 625 q 339 811 285 740 q 512 900 407 900 q 710 804 613 900 l 774 919 "},"̌":{"x_min":-359.71875,"x_max":55.5625,"ha":0,"o":"m -87 817 l 55 1016 l -51 1016 l -148 882 l -244 1016 l -359 1016 l -216 817 l -87 817 "},"¢":{"x_min":64,"x_max":718.125,"ha":772,"o":"m 378 -14 l 378 -160 l 432 -160 l 432 -15 q 547 7 497 -15 q 634 71 598 31 q 691 160 670 110 q 718 262 712 210 l 600 262 q 547 142 588 191 q 432 87 507 94 l 432 629 q 538 590 498 629 q 593 487 579 551 l 713 487 q 682 596 705 549 q 621 672 658 642 q 536 717 584 702 q 432 733 488 733 l 432 867 l 378 867 l 378 732 q 241 699 300 732 q 142 613 182 666 q 83 493 102 561 q 64 350 64 426 q 84 207 64 273 q 145 92 105 141 q 243 14 184 43 q 378 -14 301 -14 m 378 630 l 378 87 q 291 115 327 91 q 232 174 255 138 q 199 256 209 210 q 189 349 189 302 q 198 449 189 401 q 229 535 208 497 q 287 598 251 573 q 378 630 323 623 "},"ß":{"x_min":89,"x_max":696,"ha":772,"o":"m 89 738 l 89 0 l 207 0 l 207 717 q 219 813 207 775 q 253 872 232 850 q 305 902 275 893 q 372 912 336 912 q 433 899 405 912 q 482 866 461 887 q 515 817 503 845 q 527 755 527 788 q 509 675 527 708 q 462 624 492 643 q 395 598 433 605 q 315 592 356 592 l 315 499 q 420 492 373 499 q 501 462 468 485 q 552 399 534 440 q 571 290 571 358 q 514 143 571 198 q 362 87 458 87 q 338 87 351 87 q 315 91 326 87 l 315 -9 q 374 -15 342 -15 q 504 7 445 -15 q 606 73 563 30 q 672 174 648 115 q 696 305 696 233 q 684 394 696 351 q 648 469 672 436 q 589 526 625 503 q 507 554 554 548 l 507 557 q 619 637 586 582 q 652 772 652 693 q 626 879 652 833 q 559 954 600 924 q 467 1000 518 985 q 364 1016 415 1016 q 250 995 301 1016 q 164 938 200 975 q 108 851 127 902 q 89 738 89 800 "},"é":{"x_min":51,"x_max":713.28125,"ha":745,"o":"m 408 1015 l 288 817 l 377 817 l 559 1015 l 408 1015 m 586 428 l 175 428 q 191 506 175 469 q 233 571 206 543 q 296 615 259 599 q 380 631 333 631 q 462 615 425 631 q 526 571 499 599 q 569 507 553 544 q 586 428 586 469 m 700 228 l 584 228 q 521 122 569 157 q 398 87 473 87 q 296 107 339 87 q 225 159 253 126 q 185 234 198 192 q 173 324 173 276 l 713 324 q 698 461 713 389 q 646 594 684 533 q 545 695 608 655 q 386 735 482 735 q 252 707 313 735 q 145 629 190 679 q 75 511 100 579 q 51 361 51 443 q 72 210 51 279 q 137 90 94 140 q 243 12 180 40 q 393 -15 307 -15 q 596 46 515 -15 q 700 228 677 107 "},"̀":{"x_min":-337.5,"x_max":-68.0625,"ha":0,"o":"m -337 1016 l -156 817 l -68 817 l -187 1016 l -337 1016 "},"s":{"x_min":44,"x_max":652,"ha":694,"o":"m 161 227 l 44 227 q 69 113 44 160 q 135 38 94 67 q 231 -2 177 10 q 345 -15 286 -15 q 455 -4 400 -15 q 553 32 510 5 q 624 101 597 58 q 652 210 652 144 q 631 296 652 261 q 579 353 611 330 q 504 390 546 376 q 417 414 462 404 q 334 433 376 423 q 259 455 292 442 q 204 488 226 468 q 183 539 183 508 q 196 584 183 567 q 233 612 210 601 q 282 626 255 622 q 336 631 309 631 q 394 624 365 631 q 446 604 422 618 q 485 567 470 590 q 501 510 501 544 l 618 510 q 594 619 618 575 q 530 688 570 662 q 439 724 491 714 q 326 735 388 735 q 231 723 279 735 q 145 687 183 711 q 82 623 106 662 q 58 530 58 585 q 92 422 58 461 q 179 362 127 383 q 292 328 231 340 q 405 302 353 317 q 492 264 457 287 q 527 194 527 240 q 510 139 527 161 q 467 107 493 118 q 411 91 442 96 q 353 87 380 87 q 282 94 316 87 q 221 117 248 101 q 177 160 194 133 q 161 227 161 188 "},"B":{"x_min":108,"x_max":889,"ha":952,"o":"m 240 565 l 240 881 l 503 881 q 585 876 546 881 q 652 854 623 871 q 698 807 681 837 q 715 723 715 776 q 665 604 715 644 q 503 565 616 565 l 240 565 m 108 991 l 108 0 l 587 0 q 717 24 661 0 q 811 88 773 48 q 869 179 850 127 q 889 284 889 230 q 840 440 889 376 q 700 523 791 503 l 700 526 q 808 611 770 553 q 847 748 847 669 q 813 875 847 823 q 730 956 779 926 q 676 977 708 970 q 609 987 645 984 q 536 991 573 991 q 467 991 499 991 l 108 991 m 240 111 l 240 454 l 541 454 q 622 446 583 454 q 690 419 661 438 q 738 369 720 401 q 757 288 757 337 q 707 158 757 205 q 570 111 658 111 l 240 111 "},"…":{"x_min":154,"x_max":1234,"ha":1390,"o":"m 1080 154 l 1080 0 l 1234 0 l 1234 154 l 1080 154 m 617 154 l 617 0 l 771 0 l 771 154 l 617 154 m 154 154 l 154 0 l 308 0 l 308 154 l 154 154 "},"?":{"x_min":75,"x_max":680,"ha":772,"o":"m 303 154 l 303 0 l 457 0 l 457 154 l 303 154 m 75 682 l 194 682 q 205 772 194 730 q 241 845 216 814 q 302 893 265 875 q 389 912 338 912 q 509 868 465 912 q 554 749 554 825 q 539 661 554 697 q 500 595 525 625 q 446 538 476 565 q 388 479 416 511 q 342 406 361 447 q 323 307 323 365 l 323 242 l 440 242 l 440 296 q 450 360 440 332 q 478 413 460 389 q 517 459 495 437 q 560 501 538 480 q 604 547 583 523 q 642 598 626 571 q 669 660 659 626 q 680 737 680 694 q 658 856 680 804 q 598 943 636 907 q 505 997 559 978 q 387 1016 452 1016 q 256 990 315 1016 q 158 920 198 965 q 96 814 118 875 q 75 682 75 752 "},"H":{"x_min":108,"x_max":894,"ha":1002,"o":"m 108 992 l 108 0 l 240 0 l 240 454 l 762 454 l 762 0 l 894 0 l 894 992 l 762 992 l 762 565 l 240 565 l 240 992 l 108 992 "},"î":{"x_min":-52.609375,"x_max":362.609375,"ha":308,"o":"m 89 1015 l -52 817 l 52 817 l 150 950 l 245 817 l 362 817 l 218 1015 l 89 1015 m 96 0 l 214 0 l 214 718 l 96 718 l 96 0 "},"c":{"x_min":50,"x_max":702.78125,"ha":746,"o":"m 576 488 l 698 488 q 665 598 691 551 q 597 675 638 644 q 503 720 556 705 q 388 735 450 735 q 240 705 304 735 q 134 623 176 675 q 70 500 91 571 q 50 350 50 430 q 71 202 50 269 q 135 86 93 135 q 240 11 177 37 q 386 -15 304 -15 q 603 57 523 -15 q 702 263 683 129 l 581 263 q 521 133 570 179 q 384 87 472 87 q 288 110 329 87 q 223 169 248 132 q 186 253 198 205 q 175 350 175 300 q 186 455 175 404 q 222 544 197 505 q 291 607 248 583 q 398 631 334 631 q 518 593 473 631 q 576 488 562 556 "},"¶":{"x_min":66.734375,"x_max":715,"ha":833,"o":"m 715 -213 l 715 992 l 383 992 q 151 917 236 992 q 66 706 66 843 q 88 604 66 651 q 147 522 109 557 q 239 467 186 488 q 357 447 293 447 l 357 -213 l 451 -213 l 451 916 l 621 916 l 621 -213 l 715 -213 "},"•":{"x_min":100,"x_max":596,"ha":695,"o":"m 100 495 q 119 399 100 444 q 172 319 138 353 q 250 266 205 285 q 347 247 295 247 q 443 266 398 247 q 523 319 489 285 q 576 399 557 353 q 596 495 596 444 q 576 592 596 547 q 523 670 557 637 q 443 723 489 704 q 347 743 398 743 q 250 723 295 743 q 172 670 205 704 q 119 592 138 637 q 100 495 100 547 "},"¥":{"x_min":-0.390625,"x_max":772.046875,"ha":772,"o":"m 322 242 l 322 0 l 454 0 l 454 242 l 654 242 l 654 325 l 454 325 l 454 383 l 479 430 l 654 430 l 654 513 l 524 513 l 772 992 l 627 992 l 392 501 l 151 992 l 0 992 l 253 513 l 126 513 l 126 430 l 296 430 l 322 383 l 322 325 l 126 325 l 126 242 l 322 242 "},"(":{"x_min":65,"x_max":373.328125,"ha":359,"o":"m 283 -274 l 373 -274 q 232 42 274 -114 q 190 374 190 199 q 231 701 190 545 q 373 1015 273 856 l 283 1015 q 119 705 174 871 q 65 374 65 538 q 80 199 65 282 q 124 37 95 116 q 192 -119 152 -42 q 283 -274 233 -196 "},"U":{"x_min":103,"x_max":900,"ha":1003,"o":"m 900 358 l 900 992 l 768 992 l 768 358 q 702 156 768 225 q 509 88 636 88 q 305 156 376 88 q 235 358 235 225 l 235 992 l 103 992 l 103 358 q 210 68 103 159 q 509 -22 318 -22 q 798 73 697 -22 q 900 358 900 168 "},"◊":{"x_min":31.9375,"x_max":655.5625,"ha":686,"o":"m 372 964 l 297 964 l 31 480 l 297 0 l 372 0 l 655 480 l 372 964 m 336 898 l 579 480 l 336 63 l 105 480 l 336 898 "},"Ñ":{"x_min":107,"x_max":897,"ha":1003,"o":"m 742 1234 l 670 1234 q 649 1192 663 1212 q 606 1173 634 1173 q 561 1181 584 1173 q 515 1201 538 1190 q 465 1219 491 1211 q 412 1228 440 1228 q 355 1215 379 1228 q 315 1182 331 1202 q 286 1133 298 1161 q 266 1075 275 1105 l 338 1075 q 359 1118 336 1102 q 405 1134 383 1134 q 449 1125 424 1134 q 498 1107 473 1117 q 547 1088 523 1096 q 590 1080 572 1080 q 656 1091 630 1080 q 699 1122 681 1103 q 742 1234 734 1171 m 107 992 l 107 0 l 232 0 l 232 796 l 234 796 l 752 0 l 897 0 l 897 992 l 772 992 l 772 188 l 769 188 l 247 992 l 107 992 "},"F":{"x_min":108,"x_max":759.4375,"ha":797,"o":"m 108 992 l 108 0 l 240 0 l 240 454 l 695 454 l 695 565 l 240 565 l 240 881 l 759 881 l 759 992 l 108 992 "},":":{"x_min":115,"x_max":269,"ha":386,"o":"m 269 564 l 269 718 l 115 718 l 115 564 l 269 564 m 115 154 l 115 0 l 269 0 l 269 154 l 115 154 "},"Û":{"x_min":103,"x_max":900,"ha":1003,"o":"m 436 1262 l 293 1063 l 400 1063 l 497 1196 l 593 1063 l 709 1063 l 565 1262 l 436 1262 m 900 358 l 900 992 l 768 992 l 768 358 q 702 156 768 225 q 509 88 636 88 q 305 156 376 88 q 235 358 235 225 l 235 992 l 103 992 l 103 358 q 210 68 103 159 q 509 -22 318 -22 q 798 73 697 -22 q 900 358 900 168 "},"*":{"x_min":33.765625,"x_max":456.390625,"ha":490,"o":"m 280 835 l 280 992 l 206 992 l 206 835 l 58 890 l 33 823 l 181 771 l 90 644 l 153 601 l 243 734 l 339 601 l 396 644 l 305 771 l 456 823 l 428 890 l 280 835 "},"†":{"x_min":58,"x_max":714,"ha":772,"o":"m 328 614 l 328 -214 l 439 -214 l 439 614 l 714 614 l 714 718 l 439 718 l 439 992 l 328 992 l 328 718 l 58 718 l 58 614 l 328 614 "},"°":{"x_min":78,"x_max":478,"ha":556,"o":"m 147 785 q 156 833 147 810 q 181 874 165 856 q 222 904 198 893 q 278 916 247 916 q 333 904 308 916 q 374 874 357 893 q 399 833 390 856 q 409 785 409 810 q 399 736 409 759 q 374 695 390 713 q 333 665 357 676 q 278 654 308 654 q 222 665 247 654 q 181 695 198 676 q 156 736 165 713 q 147 785 147 759 m 78 785 q 93 706 78 743 q 135 642 108 669 q 199 600 162 615 q 278 585 236 585 q 355 600 319 585 q 418 642 391 615 q 462 706 446 669 q 478 785 478 743 q 462 862 478 826 q 418 925 446 898 q 355 969 391 953 q 278 985 319 985 q 199 969 236 985 q 135 925 162 953 q 93 862 108 898 q 78 785 78 826 "},"V":{"x_min":0,"x_max":851.390625,"ha":849,"o":"m 498 0 l 851 992 l 713 992 l 427 132 l 425 132 l 141 992 l 0 992 l 348 0 l 498 0 "},"å":{"x_min":50,"x_max":725,"ha":746,"o":"m 216 920 q 228 859 216 888 q 262 809 241 831 q 312 775 284 788 q 373 763 341 763 q 434 775 405 763 q 484 809 462 788 q 518 859 505 831 q 531 920 531 888 q 518 980 531 951 q 484 1030 505 1008 q 434 1064 462 1052 q 373 1077 405 1077 q 312 1064 341 1077 q 262 1030 284 1052 q 228 980 241 1008 q 216 920 216 951 m 279 920 q 306 987 279 960 q 373 1014 333 1014 q 440 987 413 1014 q 468 920 468 960 q 440 852 468 879 q 373 826 413 826 q 306 852 333 826 q 279 920 279 879 m 725 3 l 725 94 q 688 87 704 87 q 655 107 660 87 q 651 168 651 126 l 651 538 q 627 639 651 600 q 564 699 603 678 q 477 728 525 721 q 381 735 429 735 q 266 722 321 735 q 170 681 212 710 q 104 607 129 653 q 79 495 79 561 l 197 495 q 247 602 197 574 q 373 631 297 631 q 430 626 401 631 q 481 610 458 622 q 519 574 505 597 q 534 511 534 550 q 514 460 534 478 q 462 434 495 443 q 385 420 429 425 q 292 406 341 415 q 203 385 246 397 q 125 348 159 372 q 70 285 91 324 q 50 185 50 246 q 68 92 50 130 q 120 30 87 54 q 195 -4 152 5 q 287 -15 238 -15 q 427 10 362 -15 q 540 94 491 36 q 567 10 540 36 q 640 -15 594 -15 q 725 3 694 -15 m 533 371 l 533 250 q 520 196 533 225 q 481 144 508 168 q 413 103 455 119 q 313 87 372 87 q 261 93 287 87 q 217 111 236 98 q 186 144 198 123 q 175 193 175 164 q 195 263 175 237 q 247 303 215 289 q 319 323 279 317 q 399 334 359 329 q 474 346 438 339 q 533 371 510 354 "}," ":{"x_min":0,"x_max":0,"ha":386},"0":{"x_min":61,"x_max":711,"ha":772,"o":"m 186 485 q 186 564 186 521 q 192 652 186 608 q 210 737 198 696 q 244 810 221 779 q 301 861 267 842 q 385 881 335 881 q 469 861 435 881 q 526 810 503 842 q 560 737 549 779 q 578 652 572 696 q 585 564 585 608 q 585 485 585 521 q 585 360 585 429 q 565 231 585 292 q 504 129 546 171 q 385 87 461 87 q 266 129 309 87 q 205 231 224 171 q 186 360 186 292 q 186 485 186 429 m 61 483 q 61 371 61 429 q 72 257 61 312 q 104 152 83 201 q 161 65 125 103 q 253 6 198 28 q 386 -15 308 -15 q 519 6 464 -15 q 610 65 573 28 q 667 152 646 103 q 699 257 688 201 q 711 371 711 312 q 711 483 711 429 q 711 596 711 537 q 699 710 711 654 q 667 815 688 765 q 610 903 646 865 q 518 962 573 940 q 386 985 463 985 q 253 962 308 985 q 161 903 198 940 q 104 815 125 865 q 72 710 83 765 q 61 596 61 654 q 61 483 61 537 "},"”":{"x_min":92,"x_max":500,"ha":592,"o":"m 92 992 l 92 838 l 173 838 q 170 789 173 814 q 157 746 166 765 q 132 714 147 726 q 93 703 116 703 l 93 634 q 161 650 133 634 q 209 695 190 667 q 236 759 227 722 q 246 837 246 796 l 246 992 l 92 992 m 346 992 l 346 838 l 427 838 q 424 789 427 814 q 411 746 421 765 q 386 714 401 726 q 348 703 371 703 l 348 634 q 416 650 388 634 q 463 695 444 667 q 491 759 482 722 q 500 837 500 796 l 500 992 l 346 992 "},"¾":{"x_min":68,"x_max":1111,"ha":1158,"o":"m 246 732 l 246 663 l 291 663 q 339 657 316 663 q 380 638 362 651 q 409 605 398 625 q 421 556 421 585 q 381 482 421 508 q 289 456 342 456 q 164 575 164 456 l 68 575 q 85 489 68 526 q 132 429 102 453 q 203 392 162 404 q 290 380 244 380 q 374 391 334 380 q 446 424 415 402 q 496 480 477 446 q 515 560 515 514 q 486 651 515 612 q 394 701 457 690 l 394 704 q 461 750 433 719 q 489 822 489 782 q 473 893 489 862 q 430 944 458 923 q 366 974 403 964 q 285 985 329 985 q 137 932 191 985 q 84 789 84 880 l 176 789 q 202 874 176 840 q 287 909 229 909 q 364 886 333 909 q 395 822 395 864 q 359 752 395 773 q 279 732 324 732 l 246 732 m 903 1007 l 298 -36 l 387 -36 l 991 1007 l 903 1007 m 734 204 l 940 472 l 943 472 l 943 204 l 734 204 m 1028 210 l 1028 596 l 956 596 l 665 214 l 665 133 l 942 133 l 942 0 l 1028 0 l 1028 134 l 1111 134 l 1111 210 l 1028 210 "},"@":{"x_min":58,"x_max":1045,"ha":1110,"o":"m 741 374 l 857 770 l 770 770 l 738 682 q 673 770 714 745 q 583 796 631 796 q 449 761 509 796 q 346 670 388 726 q 280 544 304 615 q 257 401 257 473 q 271 315 257 355 q 311 245 286 275 q 374 199 337 216 q 455 182 411 182 q 551 210 506 182 q 627 275 595 238 l 633 275 q 658 207 633 229 q 719 185 683 185 q 825 214 768 185 q 930 296 882 243 q 1012 423 979 348 q 1045 587 1045 497 q 1007 761 1045 682 q 905 895 970 839 q 754 984 840 952 q 573 1016 668 1016 q 373 975 467 1016 q 210 865 280 935 q 98 701 139 795 q 58 500 58 607 q 98 294 58 389 q 208 128 138 198 q 373 18 278 58 q 578 -22 468 -22 q 709 -6 645 -22 q 829 41 773 9 q 932 117 885 72 q 1013 221 979 162 l 926 221 q 773 98 866 144 q 581 53 681 53 q 416 87 493 53 q 279 180 338 121 q 186 319 220 239 q 152 493 152 400 q 184 666 152 585 q 274 807 217 746 q 408 904 331 869 q 574 940 485 940 q 715 914 648 940 q 835 843 782 889 q 919 729 888 796 q 951 581 951 663 q 932 468 951 525 q 887 365 914 411 q 825 290 859 319 q 759 261 791 261 q 726 304 726 261 q 730 338 726 319 q 741 374 735 356 m 583 702 q 625 690 605 702 q 661 662 645 679 q 686 621 677 644 q 695 572 695 597 q 678 477 695 529 q 633 381 662 426 q 565 305 603 335 q 480 276 526 276 q 394 314 427 276 q 361 411 361 352 q 377 507 361 456 q 423 601 394 558 q 493 673 452 644 q 583 702 534 702 "},"ö":{"x_min":50,"x_max":747,"ha":797,"o":"m 206 968 l 206 823 l 331 823 l 331 968 l 206 968 m 467 968 l 467 823 l 592 823 l 592 968 l 467 968 m 175 358 q 192 474 175 424 q 240 560 209 525 q 311 612 270 594 q 398 631 352 631 q 485 612 444 631 q 556 560 526 594 q 604 474 587 525 q 622 358 622 424 q 604 242 622 293 q 556 157 587 192 q 485 105 526 123 q 398 87 444 87 q 311 105 352 87 q 240 157 270 123 q 192 242 209 192 q 175 358 175 293 m 50 358 q 72 211 50 279 q 138 92 94 143 q 248 13 183 41 q 398 -15 313 -15 q 549 13 484 -15 q 658 92 613 41 q 724 211 702 143 q 747 358 747 279 q 724 506 747 437 q 658 625 702 575 q 549 705 613 676 q 398 735 484 735 q 248 705 313 735 q 138 625 183 676 q 72 506 94 575 q 50 358 50 437 "},"i":{"x_min":96,"x_max":214,"ha":308,"o":"m 214 847 l 214 992 l 96 992 l 96 847 l 214 847 m 96 718 l 96 0 l 214 0 l 214 718 l 96 718 "},"Õ":{"x_min":53,"x_max":1003,"ha":1056,"o":"m 769 1234 l 697 1234 q 675 1192 690 1212 q 633 1173 661 1173 q 588 1181 611 1173 q 541 1201 565 1190 q 492 1219 518 1211 q 439 1228 466 1228 q 382 1215 405 1228 q 341 1182 358 1203 q 313 1134 325 1161 q 293 1076 301 1106 l 365 1076 q 386 1118 362 1102 q 432 1134 409 1134 q 475 1125 451 1134 q 525 1107 500 1117 q 574 1088 550 1096 q 616 1080 598 1080 q 682 1091 657 1080 q 726 1122 708 1103 q 769 1234 761 1171 m 185 496 q 204 644 185 571 q 265 775 223 717 q 372 869 307 834 q 528 905 437 905 q 683 869 618 905 q 790 775 748 834 q 851 644 832 717 q 871 496 871 571 q 851 348 871 421 q 790 217 832 275 q 683 123 748 158 q 528 88 618 88 q 372 123 437 88 q 265 217 307 158 q 204 348 223 275 q 185 496 185 421 m 53 496 q 82 301 53 394 q 172 135 112 207 q 321 20 232 62 q 528 -22 409 -22 q 734 20 646 -22 q 883 135 823 62 q 973 301 943 207 q 1003 496 1003 394 q 973 691 1003 597 q 883 857 943 785 q 734 972 823 929 q 528 1016 646 1016 q 321 972 409 1016 q 172 857 232 929 q 82 691 112 785 q 53 496 53 597 "},"þ":{"x_min":93,"x_max":774,"ha":824,"o":"m 211 621 l 211 992 l 93 992 l 93 -274 l 211 -274 l 211 96 l 213 96 q 261 41 233 63 q 322 7 290 20 q 386 -10 354 -4 q 445 -15 419 -15 q 589 13 527 -15 q 692 93 651 42 q 753 212 733 144 q 774 356 774 280 q 753 501 774 433 q 691 621 732 569 q 588 704 650 673 q 443 735 526 735 q 305 707 368 735 q 213 621 242 680 l 211 621 m 649 365 q 637 262 649 312 q 601 173 626 212 q 535 110 576 134 q 433 87 494 87 q 329 109 372 87 q 258 170 286 132 q 219 257 231 208 q 206 359 206 306 q 218 458 206 409 q 256 545 230 507 q 325 607 283 583 q 426 631 366 631 q 525 608 483 631 q 595 548 568 586 q 635 463 622 511 q 649 365 649 415 "},"]":{"x_min":0.390625,"x_max":260,"ha":360,"o":"m 0 -180 l 0 -274 l 260 -274 l 260 1015 l 0 1015 l 0 921 l 149 921 l 149 -180 l 0 -180 "},"m":{"x_min":89,"x_max":1096,"ha":1185,"o":"m 89 718 l 89 0 l 207 0 l 207 447 q 217 499 207 468 q 250 560 227 530 q 310 610 273 589 q 398 631 347 631 q 464 619 438 631 q 505 585 490 607 q 526 535 520 564 q 533 471 533 505 l 533 0 l 651 0 l 651 447 q 701 580 651 530 q 838 631 751 631 q 909 618 882 631 q 951 584 936 605 q 972 533 966 562 q 978 471 978 504 l 978 0 l 1096 0 l 1096 526 q 1078 621 1096 582 q 1029 686 1061 661 q 954 723 998 711 q 856 735 911 735 q 726 703 785 735 q 631 613 667 671 q 555 707 609 679 q 434 735 501 735 q 202 613 283 735 l 200 613 l 200 718 l 89 718 "},"8":{"x_min":56,"x_max":717,"ha":773,"o":"m 216 729 q 229 794 216 767 q 266 842 243 822 q 321 871 289 861 q 387 881 353 881 q 506 842 460 881 q 553 729 553 804 q 507 612 553 654 q 390 571 461 571 q 322 580 354 571 q 267 609 290 590 q 229 659 243 629 q 216 729 216 689 m 91 733 q 128 610 91 666 q 228 529 165 554 q 100 435 145 500 q 56 283 56 371 q 81 152 56 208 q 152 58 107 96 q 258 3 197 21 q 390 -15 319 -15 q 518 4 458 -15 q 621 62 578 23 q 691 155 665 100 q 717 283 717 211 q 673 438 717 375 q 541 529 630 501 q 641 612 604 557 q 678 733 678 666 q 661 825 678 780 q 609 906 644 871 q 517 963 573 941 q 379 985 460 985 q 270 968 322 985 q 178 919 218 951 q 114 841 138 887 q 91 733 91 794 m 181 278 q 196 355 181 321 q 241 415 212 390 q 308 453 269 440 q 389 467 346 467 q 467 452 430 467 q 532 412 504 437 q 576 353 560 387 q 592 279 592 319 q 577 203 592 237 q 535 142 562 168 q 471 102 508 116 q 390 87 435 87 q 240 138 299 87 q 181 278 181 189 "},"R":{"x_min":108,"x_max":910.71875,"ha":951,"o":"m 108 992 l 108 0 l 240 0 l 240 424 l 562 424 q 639 409 610 424 q 687 370 669 394 q 713 313 705 346 q 727 244 721 280 q 737 171 737 208 q 737 100 737 133 q 742 41 737 68 q 763 0 747 15 l 910 0 q 878 57 889 25 q 861 126 867 90 q 855 200 855 162 q 855 273 855 237 q 842 343 850 310 q 818 403 835 376 q 774 450 802 430 q 704 478 746 469 l 704 480 q 834 573 793 505 q 876 732 876 641 q 796 922 876 853 q 574 992 716 992 l 108 992 m 514 535 l 240 535 l 240 881 l 567 881 q 702 833 660 881 q 744 711 744 786 q 725 623 744 657 q 675 569 706 589 q 602 541 644 548 q 514 535 560 535 "},"á":{"x_min":50,"x_max":725,"ha":746,"o":"m 408 1016 l 288 817 l 377 817 l 559 1016 l 408 1016 m 725 3 l 725 94 q 688 87 704 87 q 655 107 660 87 q 651 168 651 126 l 651 538 q 627 639 651 600 q 564 699 603 678 q 477 728 525 721 q 381 735 429 735 q 266 722 321 735 q 170 681 212 710 q 104 607 129 653 q 79 495 79 561 l 197 495 q 247 602 197 574 q 373 631 297 631 q 430 626 401 631 q 481 610 458 622 q 519 574 505 597 q 534 511 534 550 q 514 460 534 478 q 462 434 495 443 q 385 420 428 425 q 292 406 341 415 q 203 385 246 397 q 125 348 159 372 q 70 285 91 324 q 50 185 50 246 q 68 92 50 130 q 120 30 87 54 q 195 -4 152 5 q 287 -15 238 -15 q 426 10 362 -15 q 540 94 491 36 q 567 10 540 36 q 640 -15 594 -15 q 725 3 694 -15 m 533 371 l 533 250 q 520 196 533 225 q 481 144 508 168 q 413 103 455 119 q 313 87 372 87 q 261 93 287 87 q 217 111 236 98 q 186 144 198 123 q 175 193 175 164 q 195 263 175 237 q 247 303 215 289 q 319 323 279 317 q 399 334 359 329 q 474 346 438 339 q 533 371 510 354 "},"×":{"x_min":98.609375,"x_max":736.109375,"ha":833,"o":"m 98 100 l 165 33 l 418 286 l 669 33 l 736 100 l 484 352 l 734 603 l 668 669 l 418 419 l 166 669 l 100 603 l 351 352 l 98 100 "},"o":{"x_min":50,"x_max":747,"ha":797,"o":"m 175 358 q 192 474 175 424 q 240 560 209 525 q 311 612 270 594 q 398 631 352 631 q 485 612 444 631 q 556 560 526 594 q 604 474 587 525 q 622 358 622 424 q 604 242 622 293 q 556 157 587 192 q 485 105 526 123 q 398 87 444 87 q 311 105 352 87 q 240 157 270 123 q 192 242 209 192 q 175 358 175 293 m 50 358 q 72 211 50 279 q 138 92 94 143 q 248 13 183 41 q 398 -15 313 -15 q 549 13 484 -15 q 658 92 613 41 q 724 211 702 143 q 747 358 747 279 q 724 506 747 437 q 658 625 702 575 q 549 705 613 676 q 398 735 484 735 q 248 705 313 735 q 138 625 183 676 q 72 506 94 575 q 50 358 50 437 "},"5":{"x_min":49,"x_max":707,"ha":772,"o":"m 653 865 l 653 969 l 166 969 l 75 455 l 176 455 q 256 519 211 493 q 359 545 301 545 q 450 528 409 545 q 520 481 491 511 q 566 410 550 451 q 582 321 582 369 q 565 219 582 262 q 519 146 548 175 q 453 102 491 117 q 372 87 414 87 q 291 101 328 87 q 227 138 254 114 q 184 195 200 162 q 168 266 168 228 l 49 266 q 74 146 49 199 q 142 58 99 93 q 241 3 185 22 q 362 -15 298 -15 q 512 12 448 -15 q 620 85 577 39 q 685 189 663 130 q 707 311 707 248 q 681 459 707 396 q 613 564 656 522 q 512 628 570 607 q 388 649 454 649 q 288 631 338 649 q 205 578 237 614 l 202 581 l 255 865 l 653 865 "},"̆":{"x_min":-368.0625,"x_max":63.890625,"ha":0,"o":"m -300 1016 l -368 1016 q -302 873 -354 922 q -155 824 -251 824 q -7 875 -63 824 q 63 1016 48 926 l -6 1016 q -56 931 -27 962 q -144 900 -84 900 q -300 1016 -266 900 "},"õ":{"x_min":50,"x_max":747,"ha":797,"o":"m 640 988 l 567 988 q 546 946 560 966 q 504 927 531 927 q 458 935 481 927 q 412 955 435 944 q 363 973 388 965 q 309 982 337 982 q 252 969 276 982 q 212 936 229 957 q 184 888 195 915 q 163 830 172 860 l 236 830 q 256 872 233 856 q 302 888 280 888 q 346 879 322 888 q 395 861 370 871 q 445 842 420 850 q 487 834 469 834 q 553 845 527 834 q 597 876 578 857 q 640 988 631 925 m 175 358 q 192 474 175 424 q 240 560 209 525 q 311 612 270 594 q 398 631 352 631 q 485 612 444 631 q 556 560 526 594 q 604 474 587 525 q 622 358 622 424 q 604 242 622 293 q 556 157 587 192 q 485 105 526 123 q 398 87 444 87 q 311 105 352 87 q 240 157 270 123 q 192 242 209 192 q 175 358 175 293 m 50 358 q 72 211 50 279 q 138 92 94 143 q 248 13 183 41 q 398 -15 313 -15 q 549 13 484 -15 q 658 92 613 41 q 724 211 702 143 q 747 358 747 279 q 724 506 747 437 q 658 625 702 575 q 549 705 613 676 q 398 735 484 735 q 248 705 313 735 q 138 625 183 676 q 72 506 94 575 q 50 358 50 437 "},"̧":{"x_min":-299.828125,"x_max":0,"ha":0,"o":"m -274 -202 l -299 -263 q -236 -282 -267 -274 q -172 -290 -205 -290 q -112 -283 -142 -290 q -56 -262 -81 -277 q -15 -224 -31 -248 q 0 -166 0 -201 q -36 -90 0 -115 q -116 -65 -72 -65 q -162 -74 -148 -65 l -165 -72 l -106 0 l -165 0 l -249 -107 l -226 -146 q -198 -137 -210 -140 q -169 -135 -185 -135 q -122 -146 -141 -135 q -104 -178 -104 -158 q -112 -198 -104 -190 q -133 -211 -120 -205 q -160 -218 -145 -216 q -190 -221 -176 -221 q -235 -215 -212 -221 q -274 -202 -258 -209 "},"7":{"x_min":69,"x_max":707,"ha":772,"o":"m 707 866 l 707 968 l 69 968 l 69 857 l 586 857 q 440 677 508 775 q 319 471 371 580 q 234 243 267 362 q 201 0 201 124 l 332 0 q 364 237 332 115 q 447 474 396 359 q 565 691 499 590 q 707 866 631 793 "},"K":{"x_min":108,"x_max":930.28125,"ha":926,"o":"m 108 992 l 108 0 l 240 0 l 240 347 l 405 501 l 763 0 l 930 0 l 495 591 l 913 992 l 742 992 l 240 497 l 240 992 l 108 992 "},"̈":{"x_min":-344,"x_max":41,"ha":1,"o":"m -344 968 l -344 823 l -220 823 l -220 968 l -344 968 m -84 968 l -84 823 l 41 823 l 41 968 l -84 968 "},",":{"x_min":115,"x_max":269,"ha":386,"o":"m 115 154 l 115 0 l 196 0 q 194 -36 198 -16 q 181 -74 191 -55 q 155 -109 171 -93 q 116 -133 139 -125 l 116 -202 q 232 -122 196 -179 q 269 13 269 -65 l 269 154 l 115 154 "},"d":{"x_min":50,"x_max":731,"ha":824,"o":"m 175 353 q 186 455 175 405 q 222 544 197 505 q 289 607 247 583 q 390 631 330 631 q 494 608 451 631 q 565 547 537 585 q 604 460 592 510 q 617 358 617 411 q 605 260 617 308 q 567 173 593 211 q 498 111 540 135 q 397 87 457 87 q 298 110 340 87 q 228 169 255 132 q 188 255 201 207 q 175 353 175 303 m 731 0 l 731 992 l 613 992 l 613 623 l 610 623 q 562 676 590 654 q 501 710 533 697 q 437 729 469 723 q 378 735 405 735 q 234 705 296 735 q 131 624 172 675 q 70 505 90 573 q 50 361 50 437 q 70 216 50 285 q 132 97 91 148 q 235 15 173 46 q 380 -15 297 -15 q 518 11 455 -15 q 610 98 581 37 l 613 98 l 613 0 l 731 0 "},"¨":{"x_min":-37,"x_max":348,"ha":309,"o":"m -37 968 l -37 823 l 87 823 l 87 968 l -37 968 m 223 968 l 223 823 l 348 823 l 348 968 l 223 968 "},"Ô":{"x_min":53,"x_max":1003,"ha":1056,"o":"m 462 1261 l 319 1063 l 426 1063 l 523 1196 l 619 1063 l 736 1063 l 591 1261 l 462 1261 m 185 496 q 204 644 185 571 q 265 775 223 717 q 372 869 307 834 q 528 905 437 905 q 683 869 618 905 q 790 775 748 834 q 851 644 832 717 q 871 496 871 571 q 851 348 871 421 q 790 217 832 275 q 683 123 748 158 q 528 88 618 88 q 372 123 437 88 q 265 217 307 158 q 204 348 223 275 q 185 496 185 421 m 53 496 q 82 301 53 394 q 172 135 112 207 q 321 20 232 62 q 528 -22 409 -22 q 734 20 646 -22 q 883 135 823 62 q 973 301 943 207 q 1003 496 1003 394 q 973 691 1003 597 q 883 857 943 785 q 734 972 823 929 q 528 1016 646 1016 q 321 972 409 1016 q 172 857 232 929 q 82 691 112 785 q 53 496 53 597 "},"E":{"x_min":108,"x_max":796.9375,"ha":848,"o":"m 108 992 l 108 0 l 796 0 l 796 111 l 240 111 l 240 454 l 755 454 l 755 565 l 240 565 l 240 881 l 792 881 l 792 992 l 108 992 "},"Y":{"x_min":2.671875,"x_max":897.15625,"ha":900,"o":"m 518 405 l 897 992 l 747 992 l 456 519 l 159 992 l 2 992 l 386 405 l 386 0 l 518 0 l 518 405 "},"\"":{"x_min":151,"x_max":440,"ha":591,"o":"m 346 992 l 346 634 l 440 634 l 440 992 l 346 992 m 151 992 l 151 634 l 245 634 l 245 992 l 151 992 "},"‹":{"x_min":69,"x_max":280,"ha":359,"o":"m 69 325 l 280 158 l 280 277 l 141 386 l 280 494 l 280 614 l 69 447 l 69 325 "},"˙":{"x_min":92,"x_max":217,"ha":309,"o":"m 217 823 l 217 968 l 92 968 l 92 823 l 217 823 "},"ê":{"x_min":51,"x_max":713.28125,"ha":745,"o":"m 307 1015 l 164 817 l 271 817 l 369 950 l 465 817 l 581 817 l 437 1015 l 307 1015 m 586 428 l 175 428 q 191 506 175 469 q 233 571 206 543 q 296 615 259 599 q 380 631 333 631 q 462 615 425 631 q 526 571 499 599 q 569 507 553 544 q 586 428 586 469 m 700 228 l 584 228 q 521 122 569 157 q 398 87 473 87 q 296 107 339 87 q 225 159 253 126 q 185 234 198 192 q 173 324 173 276 l 713 324 q 698 461 713 389 q 646 594 684 533 q 545 695 608 655 q 386 735 482 735 q 252 707 313 735 q 145 629 190 679 q 75 511 100 579 q 51 361 51 443 q 72 210 51 279 q 137 90 94 140 q 243 12 180 40 q 393 -15 307 -15 q 596 46 515 -15 q 700 228 677 107 "},"Ï":{"x_min":-11,"x_max":374,"ha":360,"o":"m -11 1213 l -11 1068 l 113 1068 l 113 1213 l -11 1213 m 249 1213 l 249 1068 l 374 1068 l 374 1213 l 249 1213 m 114 992 l 114 0 l 246 0 l 246 992 l 114 992 "},"„":{"x_min":92,"x_max":500,"ha":592,"o":"m 346 154 l 346 0 l 427 0 q 424 -47 427 -23 q 411 -90 421 -71 q 386 -122 401 -110 q 348 -134 371 -134 l 348 -203 q 416 -186 388 -203 q 463 -141 444 -169 q 491 -77 482 -114 q 500 0 500 -40 l 500 154 l 346 154 m 92 154 l 92 0 l 173 0 q 170 -47 173 -23 q 157 -90 166 -71 q 132 -122 147 -110 q 93 -134 116 -134 l 93 -203 q 161 -186 133 -203 q 209 -141 190 -169 q 236 -77 227 -114 q 246 0 246 -40 l 246 154 l 92 154 "},"Â":{"x_min":-8.328125,"x_max":911.109375,"ha":900,"o":"m 384 1261 l 241 1063 l 348 1063 l 445 1196 l 541 1063 l 658 1063 l 513 1261 l 384 1261 m 279 410 l 447 873 l 450 873 l 615 410 l 279 410 m 377 992 l -8 0 l 126 0 l 237 299 l 656 299 l 765 0 l 911 0 l 523 992 l 377 992 "},"Í":{"x_min":95.9375,"x_max":366.84375,"ha":360,"o":"m 215 1261 l 95 1063 l 184 1063 l 366 1261 l 215 1261 m 114 992 l 114 0 l 246 0 l 246 992 l 114 992 "},"´":{"x_min":69.4375,"x_max":340.28125,"ha":308,"o":"m 188 1016 l 69 817 l 158 817 l 340 1016 l 188 1016 "},"ì":{"x_min":-30.390625,"x_max":239,"ha":308,"o":"m -30 1015 l 150 817 l 239 817 l 119 1015 l -30 1015 m 96 0 l 214 0 l 214 718 l 96 718 l 96 0 "},"±":{"x_min":67,"x_max":767,"ha":834,"o":"m 67 94 l 67 0 l 767 0 l 767 94 l 67 94 m 67 471 l 67 377 l 370 377 l 370 145 l 464 145 l 464 377 l 767 377 l 767 471 l 464 471 l 464 702 l 370 702 l 370 471 l 67 471 "},"Ú":{"x_min":103,"x_max":900,"ha":1003,"o":"m 536 1262 l 416 1063 l 505 1063 l 687 1262 l 536 1262 m 900 358 l 900 992 l 768 992 l 768 358 q 702 156 768 225 q 509 88 636 88 q 305 156 376 88 q 235 358 235 225 l 235 992 l 103 992 l 103 358 q 210 68 103 159 q 509 -22 318 -22 q 798 73 697 -22 q 900 358 900 168 "},"|":{"x_min":107,"x_max":201,"ha":308,"o":"m 107 1092 l 107 -296 l 201 -296 l 201 1092 l 107 1092 "},"§":{"x_min":49,"x_max":717,"ha":773,"o":"m 527 758 l 645 758 q 575 951 645 888 q 391 1015 505 1015 q 297 1000 344 1015 q 214 956 250 985 q 156 885 178 927 q 134 789 134 844 q 150 710 134 745 q 197 642 167 674 q 140 615 167 634 q 92 571 112 596 q 60 514 72 545 q 49 451 49 483 q 69 351 49 394 q 124 273 90 308 q 202 211 158 238 q 290 161 246 184 q 379 112 336 136 q 456 63 422 88 q 511 9 490 38 q 532 -54 532 -19 q 519 -105 532 -83 q 487 -141 506 -126 q 442 -163 467 -156 q 391 -170 416 -170 q 277 -126 320 -170 q 234 -11 234 -82 l 120 -11 q 193 -203 120 -133 q 392 -274 266 -274 q 497 -258 449 -274 q 579 -212 544 -242 q 634 -142 614 -183 q 654 -51 654 -101 q 572 113 654 52 q 676 193 635 138 q 717 317 717 248 q 696 408 717 369 q 644 480 676 448 q 571 537 612 512 q 486 587 529 563 q 401 633 443 610 q 327 679 360 655 q 275 731 294 703 q 256 791 256 758 q 294 882 256 854 q 388 911 332 911 q 490 866 454 911 q 527 758 527 821 m 264 583 q 359 522 311 551 q 456 465 407 494 q 503 435 478 451 q 551 399 529 419 q 588 354 573 379 q 603 301 603 330 q 573 221 603 254 q 503 172 543 188 q 407 232 456 204 q 308 287 358 261 q 257 318 283 302 q 210 354 231 334 q 176 398 189 373 q 163 456 163 423 q 193 535 163 501 q 264 583 224 569 "},"Ý":{"x_min":2.671875,"x_max":897.15625,"ha":900,"o":"m 484 1262 l 365 1063 l 454 1063 l 636 1262 l 484 1262 m 518 405 l 897 992 l 747 992 l 456 519 l 159 992 l 2 992 l 386 405 l 386 0 l 518 0 l 518 405 "},"b":{"x_min":93,"x_max":774,"ha":824,"o":"m 93 992 l 93 0 l 211 0 l 211 96 l 213 96 q 261 42 233 64 q 322 8 290 21 q 386 -9 354 -3 q 445 -15 419 -15 q 589 14 527 -15 q 692 94 651 43 q 753 212 733 144 q 774 357 774 280 q 753 501 774 433 q 691 621 732 569 q 588 704 650 673 q 443 735 526 735 q 305 707 368 735 q 213 621 242 680 l 211 621 l 211 992 l 93 992 m 649 365 q 637 262 649 312 q 601 173 626 212 q 535 111 576 135 q 433 87 494 87 q 329 110 372 87 q 258 171 286 133 q 219 257 231 208 q 206 360 206 307 q 218 458 206 410 q 256 545 230 507 q 325 607 283 583 q 426 631 366 631 q 525 608 483 631 q 595 549 568 586 q 635 463 622 511 q 649 365 649 415 "},"q":{"x_min":50,"x_max":731,"ha":824,"o":"m 175 352 q 186 455 175 405 q 222 544 197 505 q 289 607 247 583 q 390 631 330 631 q 494 608 451 631 q 565 547 537 585 q 604 460 592 509 q 617 358 617 411 q 605 259 617 308 q 567 172 593 210 q 498 110 540 134 q 397 87 457 87 q 298 109 340 87 q 228 169 255 131 q 188 254 201 206 q 175 352 175 302 m 731 -274 l 731 718 l 613 718 l 613 622 l 610 622 q 562 675 590 654 q 501 710 533 697 q 437 729 469 723 q 378 735 405 735 q 234 705 296 735 q 131 624 172 675 q 70 505 90 573 q 50 360 50 437 q 70 216 50 284 q 132 96 91 148 q 235 14 173 45 q 380 -15 297 -15 q 518 10 455 -15 q 610 97 581 36 l 613 97 l 613 -274 l 731 -274 "},"̃":{"x_min":-386.109375,"x_max":88.890625,"ha":0,"o":"m 88 988 l 16 988 q -4 946 9 966 q -47 927 -19 927 q -92 935 -69 927 q -138 955 -115 944 q -188 973 -162 965 q -241 982 -213 982 q -297 969 -273 982 q -337 936 -320 957 q -365 888 -354 915 q -386 830 -377 860 l -313 830 q -294 872 -316 856 q -248 888 -272 888 q -204 879 -229 888 q -155 861 -180 871 q -106 842 -130 850 q -63 834 -81 834 q 2 845 -23 834 q 45 876 27 857 q 88 988 80 925 "},"Ö":{"x_min":53,"x_max":1003,"ha":1056,"o":"m 335 1213 l 335 1068 l 460 1068 l 460 1213 l 335 1213 m 596 1213 l 596 1068 l 721 1068 l 721 1213 l 596 1213 m 185 496 q 204 644 185 571 q 265 775 223 717 q 372 869 307 834 q 528 905 437 905 q 683 869 618 905 q 790 775 748 834 q 851 644 832 717 q 871 496 871 571 q 851 348 871 421 q 790 217 832 275 q 683 123 748 158 q 528 88 618 88 q 372 123 437 88 q 265 217 307 158 q 204 348 223 275 q 185 496 185 421 m 53 496 q 82 301 53 394 q 172 135 112 207 q 321 20 232 62 q 528 -22 409 -22 q 734 20 646 -22 q 883 135 823 62 q 973 301 943 207 q 1003 496 1003 394 q 973 691 1003 597 q 883 857 943 785 q 734 972 823 929 q 528 1016 646 1016 q 321 972 409 1016 q 172 857 232 929 q 82 691 112 785 q 53 496 53 597 "},"z":{"x_min":31,"x_max":637,"ha":668,"o":"m 31 90 l 31 0 l 637 0 l 637 104 l 178 104 l 617 637 l 617 718 l 59 718 l 59 614 l 464 614 l 31 90 "},"ã":{"x_min":50,"x_max":725,"ha":746,"o":"m 614 988 l 542 988 q 521 946 535 966 q 478 927 506 927 q 433 935 456 927 q 387 955 410 944 q 337 973 363 965 q 284 982 312 982 q 227 969 251 982 q 187 936 204 957 q 158 888 170 915 q 138 830 147 860 l 210 830 q 231 872 208 856 q 277 888 255 888 q 321 879 296 888 q 370 861 345 871 q 419 842 395 850 q 462 834 444 834 q 528 845 502 834 q 571 876 553 857 q 614 988 606 925 m 725 3 l 725 94 q 688 87 704 87 q 655 107 660 87 q 651 168 651 126 l 651 538 q 627 639 651 600 q 564 699 603 678 q 477 728 525 721 q 381 735 429 735 q 266 722 321 735 q 170 681 212 710 q 104 607 129 653 q 79 495 79 561 l 197 495 q 247 602 197 574 q 373 631 297 631 q 430 626 401 631 q 481 610 458 622 q 519 574 505 597 q 534 511 534 550 q 514 460 534 478 q 462 434 495 443 q 385 420 428 425 q 292 406 341 415 q 203 385 246 397 q 125 348 159 372 q 70 285 91 324 q 50 185 50 246 q 68 92 50 130 q 120 30 87 54 q 195 -4 152 5 q 287 -15 238 -15 q 426 10 362 -15 q 540 94 491 36 q 567 10 540 36 q 640 -15 594 -15 q 725 3 694 -15 m 533 371 l 533 250 q 520 196 533 225 q 481 144 508 168 q 413 103 455 119 q 313 87 372 87 q 261 93 287 87 q 217 111 236 98 q 186 144 198 123 q 175 193 175 164 q 195 263 175 237 q 247 303 215 289 q 319 323 279 317 q 399 334 359 329 q 474 346 438 339 q 533 371 510 354 "},"æ":{"x_min":50,"x_max":1175.390625,"ha":1209,"o":"m 649 324 l 1175 324 q 1160 482 1175 407 q 1107 613 1144 557 q 1008 702 1069 669 q 851 735 946 735 q 722 710 786 735 q 622 631 658 686 q 578 685 605 664 q 516 716 550 705 q 448 731 483 728 q 381 735 413 735 q 267 722 321 735 q 171 681 212 710 q 104 607 129 653 q 79 495 79 561 l 197 495 q 247 602 197 574 q 373 631 298 631 q 432 627 403 631 q 485 612 462 624 q 523 578 508 600 q 538 519 538 555 q 524 470 538 487 q 480 442 510 453 q 405 425 451 432 q 293 405 358 418 q 203 385 247 397 q 125 348 159 372 q 70 285 91 323 q 50 185 50 246 q 68 92 50 130 q 120 30 87 54 q 197 -4 152 5 q 293 -15 241 -15 q 474 17 393 -15 q 596 124 556 50 q 641 57 614 83 q 702 14 668 30 q 775 -8 736 -1 q 855 -15 814 -15 q 1059 46 978 -15 q 1167 227 1140 108 l 1046 227 q 980 121 1029 156 q 864 87 930 87 q 769 106 810 87 q 701 157 728 125 q 662 233 675 190 q 649 324 649 276 m 175 193 q 186 248 175 226 q 218 285 198 271 q 263 308 237 300 q 319 322 290 317 q 378 332 347 328 q 439 341 409 336 q 494 353 468 346 q 538 371 519 360 l 538 250 q 524 196 538 225 q 484 144 511 168 q 414 103 457 119 q 314 87 372 87 q 261 93 287 87 q 217 111 236 98 q 186 144 198 123 q 175 193 175 164 m 1049 428 l 649 428 q 662 509 649 472 q 703 573 676 546 q 767 615 729 600 q 851 631 804 631 q 935 615 899 631 q 997 571 972 599 q 1035 507 1022 544 q 1049 428 1049 469 "},"®":{"x_min":33,"x_max":1077,"ha":1110,"o":"m 448 532 l 448 724 l 573 724 q 621 720 596 724 q 664 707 645 716 q 695 678 683 697 q 707 629 707 660 q 693 572 707 592 q 658 541 680 551 q 607 532 635 532 q 546 532 578 532 l 448 532 m 354 800 l 354 193 l 448 193 l 448 454 l 548 454 l 713 193 l 814 193 l 641 460 q 755 506 709 467 q 801 626 801 544 q 748 756 801 713 q 588 800 696 800 l 354 800 m 127 499 q 159 673 127 592 q 249 812 192 753 q 386 905 307 871 q 556 940 464 940 q 724 905 646 940 q 860 812 802 871 q 950 673 917 753 q 983 499 983 592 q 950 322 983 403 q 860 180 917 240 q 724 87 802 121 q 556 53 646 53 q 386 87 464 53 q 249 180 307 121 q 159 322 192 240 q 127 499 127 403 m 33 499 q 74 291 33 386 q 187 125 116 196 q 354 16 259 55 q 556 -22 449 -22 q 757 16 663 -22 q 922 125 852 55 q 1035 291 993 196 q 1077 499 1077 386 q 1035 703 1077 608 q 922 867 993 797 q 757 976 852 936 q 556 1016 663 1016 q 354 976 449 1016 q 187 867 259 936 q 74 703 116 797 q 33 499 33 608 "},"É":{"x_min":108,"x_max":796.9375,"ha":848,"o":"m 459 1261 l 340 1063 l 428 1063 l 610 1261 l 459 1261 m 108 992 l 108 0 l 796 0 l 796 111 l 240 111 l 240 454 l 755 454 l 755 565 l 240 565 l 240 881 l 792 881 l 792 992 l 108 992 "},"~":{"x_min":95.828125,"x_max":737.5,"ha":833,"o":"m 737 373 l 687 442 q 662 405 675 424 q 635 371 650 387 q 603 346 620 356 q 565 337 586 337 q 500 356 537 337 q 423 392 462 376 q 344 423 383 410 q 269 437 305 437 q 207 426 234 437 q 159 399 180 416 q 122 361 137 382 q 95 317 106 339 l 145 248 q 164 285 154 266 q 189 319 175 303 q 222 344 204 334 q 262 354 240 354 q 350 336 311 354 q 422 299 388 319 q 490 267 456 280 q 563 254 525 254 q 621 264 595 254 q 668 291 647 274 q 705 329 688 308 q 737 373 722 351 "},"³":{"x_min":6,"x_max":453,"ha":463,"o":"m 184 732 l 184 663 l 229 663 q 277 657 254 663 q 318 638 300 651 q 347 605 336 625 q 359 555 359 584 q 319 481 359 508 q 227 455 280 455 q 102 575 102 455 l 6 575 q 23 489 6 526 q 70 428 40 452 q 141 391 100 404 q 228 379 182 379 q 312 390 272 379 q 384 423 353 401 q 434 479 415 445 q 453 559 453 513 q 424 651 453 612 q 332 701 395 690 l 332 704 q 399 750 371 719 q 427 822 427 782 q 411 893 427 862 q 368 944 396 923 q 304 974 341 964 q 223 985 267 985 q 75 932 129 985 q 22 789 22 880 l 114 789 q 140 874 114 840 q 225 909 167 909 q 302 886 271 909 q 333 822 333 864 q 297 752 333 773 q 217 732 262 732 l 184 732 "},"¡":{"x_min":103,"x_max":257,"ha":360,"o":"m 257 564 l 257 718 l 103 718 l 103 564 l 257 564 m 131 30 l 131 -274 l 228 -274 l 228 30 l 228 462 l 131 462 l 131 30 "},"[":{"x_min":100,"x_max":359.609375,"ha":360,"o":"m 359 921 l 359 1015 l 100 1015 l 100 -274 l 359 -274 l 359 -180 l 211 -180 l 211 921 l 359 921 "},"L":{"x_min":108,"x_max":765,"ha":772,"o":"m 108 991 l 108 0 l 765 0 l 765 111 l 240 111 l 240 991 l 108 991 "},"\u001d":{"x_min":0,"x_max":0,"ha":0}," ":{"x_min":0,"x_max":0,"ha":386},"%":{"x_min":128,"x_max":1261,"ha":1389,"o":"m 232 705 q 236 773 232 737 q 253 838 240 808 q 290 888 266 868 q 352 909 313 909 q 416 888 393 909 q 451 838 439 868 q 467 773 464 808 q 471 707 471 737 q 466 639 471 675 q 449 572 462 602 q 412 523 436 542 q 348 504 389 504 q 286 524 309 504 q 251 574 263 544 q 235 639 238 604 q 232 705 232 675 m 128 703 q 139 596 128 646 q 177 508 151 546 q 247 449 204 471 q 352 428 290 428 q 455 451 413 428 q 524 513 497 475 q 563 602 551 551 q 575 707 575 653 q 564 814 575 764 q 528 903 554 865 q 460 962 502 940 q 352 985 418 985 q 246 962 289 985 q 176 900 202 939 q 139 810 150 861 q 128 703 128 759 m 918 261 q 922 329 918 293 q 939 394 926 364 q 976 444 952 424 q 1038 465 999 465 q 1102 444 1079 465 q 1137 394 1125 424 q 1153 329 1150 364 q 1157 263 1157 293 q 1152 195 1157 231 q 1135 128 1148 158 q 1098 79 1122 98 q 1034 60 1075 60 q 972 80 995 60 q 937 130 949 100 q 921 195 924 160 q 918 261 918 231 m 814 258 q 825 151 814 201 q 863 64 837 101 q 933 6 890 28 q 1038 -15 976 -15 q 1141 7 1099 -15 q 1210 69 1183 30 q 1249 158 1237 107 q 1261 262 1261 208 q 1250 370 1261 319 q 1214 459 1240 421 q 1146 518 1188 496 q 1038 541 1104 541 q 932 518 975 541 q 862 456 888 495 q 825 366 836 417 q 814 258 814 315 m 1008 1003 l 261 -29 l 380 -29 l 1126 1003 l 1008 1003 "},"P":{"x_min":108,"x_max":847,"ha":900,"o":"m 240 515 l 240 881 l 498 881 q 662 834 610 881 q 715 698 715 787 q 662 562 715 609 q 498 515 610 515 l 240 515 m 108 992 l 108 0 l 240 0 l 240 404 l 542 404 q 769 481 692 404 q 847 698 847 559 q 769 914 847 837 q 542 992 692 992 l 108 992 "},"À":{"x_min":-8.328125,"x_max":911.109375,"ha":900,"o":"m 263 1261 l 445 1063 l 534 1063 l 415 1261 l 263 1261 m 279 410 l 447 873 l 450 873 l 615 410 l 279 410 m 377 992 l -8 0 l 126 0 l 237 299 l 656 299 l 765 0 l 911 0 l 523 992 l 377 992 "},"_":{"x_min":0,"x_max":694,"ha":694,"o":"m 0 -103 l 0 -172 l 694 -172 l 694 -103 l 0 -103 "},"̊":{"x_min":-308,"x_max":5,"ha":1,"o":"m -308 920 q -295 859 -308 888 q -262 809 -282 831 q -212 775 -241 788 q -152 763 -184 763 q -91 775 -120 763 q -41 809 -63 788 q -7 859 -20 831 q 5 920 5 888 q -7 980 5 951 q -41 1030 -20 1008 q -91 1064 -63 1052 q -152 1077 -120 1077 q -212 1064 -184 1077 q -262 1030 -241 1052 q -295 980 -282 1008 q -308 920 -308 951 m -247 920 q -219 987 -247 960 q -152 1014 -192 1014 q -85 987 -112 1014 q -58 920 -58 960 q -85 852 -58 879 q -152 826 -112 826 q -219 852 -192 826 q -247 920 -247 879 "},"ñ":{"x_min":89,"x_max":683,"ha":772,"o":"m 627 988 l 555 988 q 533 946 548 966 q 491 927 519 927 q 446 935 469 927 q 399 955 423 944 q 350 973 376 965 q 297 982 324 982 q 240 969 263 982 q 200 936 216 956 q 171 887 183 915 q 151 829 159 859 l 223 829 q 244 872 220 856 q 290 888 268 888 q 333 879 309 888 q 383 861 358 871 q 432 842 408 850 q 474 834 456 834 q 540 845 515 834 q 584 876 566 857 q 627 988 619 925 m 89 718 l 89 0 l 207 0 l 207 405 q 220 495 207 454 q 259 566 233 536 q 325 614 286 597 q 419 631 365 631 q 526 591 487 631 q 565 485 565 552 l 565 0 l 683 0 l 683 472 q 671 578 683 530 q 630 661 659 626 q 553 715 601 696 q 435 735 506 735 q 202 604 276 735 l 200 604 l 200 718 l 89 718 "},"+":{"x_min":67,"x_max":767,"ha":834,"o":"m 464 399 l 464 703 l 370 703 l 370 399 l 67 399 l 67 305 l 370 305 l 370 0 l 464 0 l 464 305 l 767 305 l 767 399 l 464 399 "},"‚":{"x_min":115,"x_max":269,"ha":386,"o":"m 115 154 l 115 0 l 196 0 q 193 -47 196 -23 q 180 -90 189 -71 q 155 -122 170 -110 q 116 -134 139 -134 l 116 -203 q 184 -186 156 -203 q 232 -141 213 -169 q 259 -77 250 -114 q 269 0 269 -40 l 269 154 l 115 154 "},"½":{"x_min":50.28125,"x_max":1115,"ha":1158,"o":"m 698 382 l 792 382 q 817 478 792 436 q 905 520 843 520 q 987 493 954 520 q 1021 422 1021 467 q 1011 368 1021 391 q 981 324 1001 344 q 930 284 961 304 q 860 241 900 265 q 795 201 826 222 q 741 153 765 180 q 702 89 717 126 q 688 0 688 52 l 1107 0 l 1107 76 l 780 76 q 803 116 786 98 q 845 151 821 134 q 899 184 869 167 q 958 219 929 201 q 1016 255 987 235 q 1065 298 1044 274 q 1101 352 1087 322 q 1115 420 1115 381 q 1099 495 1115 462 q 1054 550 1083 527 q 988 584 1026 572 q 909 596 951 596 q 755 536 812 596 q 698 382 698 477 m 304 389 l 304 985 l 234 985 q 169 906 221 926 q 50 886 118 886 l 50 817 l 210 817 l 210 389 l 304 389 m 792 1007 l 187 -37 l 276 -37 l 880 1007 l 792 1007 "},"Æ":{"x_min":-8.546875,"x_max":1242.84375,"ha":1286,"o":"m 565 881 l 622 881 l 622 400 l 331 400 l 565 881 m 491 992 l -8 0 l 138 0 l 280 289 l 622 289 l 622 0 l 1242 0 l 1242 111 l 747 111 l 747 454 l 1205 454 l 1205 565 l 747 565 l 747 881 l 1235 881 l 1235 992 l 491 992 "},"Ë":{"x_min":108,"x_max":796.9375,"ha":848,"o":"m 232 1213 l 232 1068 l 357 1068 l 357 1213 l 232 1213 m 493 1213 l 493 1068 l 618 1068 l 618 1213 l 493 1213 m 108 992 l 108 0 l 796 0 l 796 111 l 240 111 l 240 454 l 755 454 l 755 565 l 240 565 l 240 881 l 792 881 l 792 992 l 108 992 "},"'":{"x_min":146,"x_max":240,"ha":386,"o":"m 146 992 l 146 634 l 240 634 l 240 992 l 146 992 "},"ª":{"x_min":35,"x_max":490,"ha":525,"o":"m 215 597 q 154 607 180 597 q 129 654 129 617 q 154 704 129 690 q 218 726 180 719 q 296 739 257 733 q 357 758 334 744 l 357 693 q 349 660 357 677 q 325 629 341 642 q 281 606 308 615 q 215 597 254 597 m 440 641 l 440 864 q 423 925 440 902 q 380 962 406 949 q 323 980 355 975 q 259 985 291 985 q 183 977 220 985 q 118 951 146 969 q 73 905 90 933 q 56 838 56 878 l 141 838 q 172 899 141 882 q 253 916 203 916 q 292 913 273 916 q 327 904 312 911 q 352 884 343 897 q 361 847 361 871 q 354 824 361 833 q 329 809 347 815 q 281 798 312 803 q 201 789 250 794 q 141 778 171 786 q 87 753 111 769 q 49 712 64 737 q 35 651 35 687 q 48 596 35 619 q 83 557 61 572 q 134 534 105 541 q 197 528 164 528 q 361 591 300 528 q 429 528 361 528 q 461 530 447 528 q 490 539 475 533 l 490 599 q 474 597 481 597 l 459 597 q 444 606 448 597 q 440 641 440 616 "},"˛":{"x_min":106,"x_max":383.328125,"ha":308,"o":"m 319 4 l 263 4 q 180 -54 211 -26 q 132 -107 148 -83 q 110 -149 115 -131 q 106 -176 106 -166 q 121 -240 106 -217 q 157 -274 136 -263 q 199 -287 178 -285 q 233 -290 221 -290 q 316 -271 276 -290 q 383 -204 355 -252 l 338 -179 q 304 -209 323 -198 q 252 -221 284 -221 q 212 -202 225 -221 q 200 -162 200 -184 q 223 -94 200 -133 q 319 4 247 -55 "},"ð":{"x_min":50,"x_max":747,"ha":797,"o":"m 391 599 q 496 579 452 599 q 567 526 540 560 q 608 450 595 493 q 622 358 622 407 q 604 242 622 293 q 556 157 587 191 q 485 105 526 123 q 398 87 444 87 q 311 105 352 87 q 240 157 270 123 q 192 242 209 191 q 175 358 175 293 q 229 532 175 465 q 391 599 284 599 m 377 703 q 237 674 298 703 q 134 598 176 646 q 71 488 93 550 q 50 358 50 426 q 72 211 50 279 q 138 92 94 143 q 248 13 183 41 q 398 -15 313 -15 q 549 13 484 -15 q 658 92 613 41 q 724 211 702 143 q 747 358 747 279 q 689 652 747 518 q 505 890 631 786 l 665 964 l 616 1015 l 449 937 q 392 980 422 960 q 342 1015 362 1001 l 245 953 q 292 923 265 941 q 342 886 320 905 l 191 815 l 244 759 l 404 835 q 442 803 420 823 q 488 754 465 782 q 534 694 512 727 q 573 626 556 661 l 570 626 q 483 685 533 668 q 377 703 433 703 "},"T":{"x_min":3,"x_max":796,"ha":797,"o":"m 334 881 l 334 0 l 466 0 l 466 881 l 796 881 l 796 992 l 3 992 l 3 881 l 334 881 "},"Þ":{"x_min":108,"x_max":847,"ha":900,"o":"m 240 357 l 240 723 l 498 723 q 662 677 610 723 q 715 539 715 631 q 662 403 715 450 q 498 357 610 357 l 240 357 m 108 0 l 240 0 l 240 246 l 542 246 q 769 323 692 246 q 847 539 847 400 q 769 756 847 678 q 542 834 692 834 l 240 834 l 240 992 l 108 992 l 108 0 "},"j":{"x_min":-17.890625,"x_max":214,"ha":308,"o":"m 214 847 l 214 992 l 96 992 l 96 847 l 214 847 m 214 -90 l 214 717 l 96 717 l 96 -71 q 82 -148 96 -126 q 29 -170 68 -170 l 4 -170 q -6 -169 -1 -170 q -17 -167 -10 -168 l -17 -268 q 41 -274 9 -274 q 167 -230 120 -274 q 214 -90 214 -186 "},"1":{"x_min":120.4375,"x_max":494,"ha":772,"o":"m 494 0 l 494 985 l 403 985 q 367 893 394 929 q 303 836 341 857 q 217 807 264 815 q 120 800 170 800 l 120 706 l 376 706 l 376 0 l 494 0 "},"›":{"x_min":79,"x_max":290,"ha":359,"o":"m 290 447 l 79 614 l 79 494 l 217 386 l 79 277 l 79 158 l 290 325 l 290 447 "},"ä":{"x_min":50,"x_max":725,"ha":746,"o":"m 181 968 l 181 823 l 306 823 l 306 968 l 181 968 m 442 968 l 442 823 l 567 823 l 567 968 l 442 968 m 725 3 l 725 94 q 688 87 704 87 q 655 107 660 87 q 651 168 651 126 l 651 538 q 627 639 651 600 q 564 699 603 678 q 477 728 525 721 q 381 735 429 735 q 266 722 321 735 q 170 681 212 710 q 104 607 129 653 q 79 495 79 561 l 197 495 q 247 602 197 574 q 373 631 297 631 q 430 626 401 631 q 481 610 458 622 q 519 574 505 597 q 534 511 534 550 q 515 461 534 478 q 462 434 495 443 q 385 420 429 425 q 293 406 342 415 q 203 385 247 397 q 125 348 159 372 q 70 285 91 324 q 50 185 50 246 q 68 92 50 130 q 120 30 87 54 q 195 -4 152 5 q 287 -15 238 -15 q 427 10 362 -15 q 540 94 491 36 q 567 10 540 36 q 640 -15 594 -15 q 725 3 694 -15 m 533 371 l 533 250 q 520 196 533 225 q 481 144 508 168 q 413 103 455 119 q 313 87 372 87 q 261 93 287 87 q 217 111 236 98 q 186 144 198 123 q 175 193 175 164 q 195 263 175 237 q 247 303 215 289 q 319 323 279 317 q 399 334 360 329 q 475 347 439 339 q 533 371 510 354 "},"<":{"x_min":64,"x_max":770,"ha":834,"o":"m 770 619 l 770 714 l 64 394 l 64 308 l 770 -9 l 770 83 l 179 351 l 770 619 "},"£":{"x_min":65,"x_max":755.171875,"ha":772,"o":"m 65 517 l 65 454 l 182 454 q 206 391 195 426 q 218 325 218 356 q 205 248 218 284 q 171 180 192 212 q 121 122 149 148 q 65 76 93 96 l 130 -13 q 195 20 161 7 q 269 34 228 34 q 344 24 309 34 q 414 4 380 15 q 484 -13 451 -5 q 552 -22 517 -22 q 660 -8 606 -22 q 755 40 713 4 l 695 132 q 637 96 670 113 q 571 80 605 80 q 511 89 539 80 q 455 106 482 97 q 395 120 427 113 q 323 127 363 127 q 247 114 281 127 q 177 86 213 101 l 174 89 q 234 140 205 114 q 285 198 263 167 q 322 266 308 229 q 336 350 336 302 q 327 405 336 379 q 308 454 319 431 l 498 454 l 498 517 l 277 517 q 252 565 265 541 q 229 614 240 589 q 212 667 219 639 q 205 729 205 696 q 220 802 205 768 q 262 859 235 835 q 326 898 290 884 q 404 912 362 912 q 554 845 504 912 q 605 657 605 779 l 726 657 q 637 926 726 836 q 396 1016 549 1016 q 275 996 332 1016 q 174 940 218 977 q 105 852 131 904 q 80 733 80 800 q 98 615 80 667 q 145 517 117 564 l 65 517 "},"¹":{"x_min":91.28125,"x_max":345,"ha":462,"o":"m 345 389 l 345 985 l 275 985 q 210 906 262 927 q 91 886 159 886 l 91 817 l 251 817 l 251 389 l 345 389 "},"t":{"x_min":12,"x_max":395,"ha":437,"o":"m 252 718 l 252 934 l 134 934 l 134 718 l 12 718 l 12 614 l 134 614 l 134 156 q 143 76 134 106 q 173 29 153 45 q 226 6 193 12 q 304 0 258 0 l 395 0 l 395 104 l 340 104 q 295 106 313 104 q 268 115 278 108 q 255 134 258 122 q 252 167 252 147 l 252 614 l 395 614 l 395 718 l 252 718 "},"¬":{"x_min":66.453125,"x_max":766,"ha":833,"o":"m 766 151 l 766 539 l 66 539 l 66 445 l 672 445 l 672 151 l 766 151 "},"ù":{"x_min":89,"x_max":683,"ha":772,"o":"m 200 1015 l 381 817 l 470 817 l 351 1015 l 200 1015 m 683 0 l 683 718 l 565 718 l 565 312 q 551 223 565 263 q 512 151 538 182 q 446 104 485 121 q 352 87 406 87 q 245 126 284 87 q 207 232 207 165 l 207 719 l 89 719 l 89 246 q 100 140 89 187 q 141 57 112 92 q 218 3 170 22 q 336 -15 265 -15 q 473 16 415 -15 q 569 114 531 47 l 571 114 l 571 0 l 683 0 "},"W":{"x_min":16.671875,"x_max":1269.453125,"ha":1286,"o":"m 1004 0 l 1269 992 l 1137 992 l 936 167 l 933 167 l 713 992 l 570 992 l 348 167 l 345 167 l 151 992 l 16 992 l 270 0 l 408 0 l 637 834 l 640 834 l 866 0 l 1004 0 "},"ï":{"x_min":-37,"x_max":348,"ha":309,"o":"m -37 967 l -37 822 l 87 822 l 87 967 l -37 967 m 223 967 l 223 822 l 348 822 l 348 967 l 223 967 m 96 0 l 214 0 l 214 718 l 96 718 l 96 0 "},">":{"x_min":64,"x_max":770,"ha":834,"o":"m 64 83 l 64 -9 l 770 308 l 770 394 l 64 714 l 64 619 l 654 351 l 64 83 "},"v":{"x_min":19.4375,"x_max":675,"ha":694,"o":"m 412 0 l 675 718 l 551 718 l 355 119 l 352 119 l 151 718 l 19 718 l 286 0 l 412 0 "},"û":{"x_min":89,"x_max":683,"ha":772,"o":"m 320 1015 l 177 817 l 284 817 l 381 950 l 477 817 l 594 817 l 449 1015 l 320 1015 m 683 0 l 683 718 l 565 718 l 565 312 q 551 223 565 263 q 512 151 538 182 q 446 104 485 121 q 352 87 406 87 q 245 126 284 87 q 207 232 207 165 l 207 719 l 89 719 l 89 246 q 100 140 89 187 q 141 57 112 92 q 218 3 170 22 q 336 -15 265 -15 q 473 16 415 -15 q 569 114 531 47 l 571 114 l 571 0 l 683 0 "},"Ò":{"x_min":53,"x_max":1003,"ha":1056,"o":"m 341 1261 l 523 1063 l 612 1063 l 493 1261 l 341 1261 m 185 496 q 204 644 185 571 q 265 775 223 717 q 372 869 307 834 q 528 905 437 905 q 683 869 618 905 q 790 775 748 834 q 851 644 832 717 q 871 496 871 571 q 851 348 871 421 q 790 217 832 275 q 683 123 748 158 q 528 88 618 88 q 372 123 437 88 q 265 217 307 158 q 204 348 223 275 q 185 496 185 421 m 53 496 q 82 301 53 394 q 172 135 112 207 q 321 20 232 62 q 528 -22 409 -22 q 734 20 646 -22 q 883 135 823 62 q 973 301 943 207 q 1003 496 1003 394 q 973 691 1003 597 q 883 857 943 785 q 734 972 823 929 q 528 1016 646 1016 q 321 972 409 1016 q 172 857 232 929 q 82 691 112 785 q 53 496 53 597 "},"&":{"x_min":46,"x_max":895.65625,"ha":875,"o":"m 381 609 q 348 651 365 630 q 317 694 331 672 q 295 737 304 715 q 286 782 286 760 q 322 862 286 836 q 400 888 358 888 q 483 856 452 888 q 514 782 514 825 q 501 724 514 750 q 469 678 488 698 q 426 640 450 657 q 381 609 402 623 m 636 123 l 741 0 l 895 0 l 702 223 q 729 282 717 257 q 747 334 740 308 q 760 392 755 361 q 769 468 765 423 l 654 468 q 625 313 654 391 l 445 531 q 515 578 482 552 q 575 636 548 604 q 616 706 601 668 q 632 789 632 744 q 611 877 632 839 q 558 941 591 915 q 481 979 525 966 q 391 992 437 992 q 295 975 337 992 q 225 930 254 958 q 182 864 197 901 q 168 787 168 828 q 177 720 168 750 q 202 663 186 690 q 237 609 218 636 q 277 554 256 583 q 188 500 230 529 q 114 436 145 472 q 64 357 83 401 q 46 254 46 312 q 56 177 46 223 q 100 89 66 132 q 194 15 133 46 q 355 -15 255 -15 q 514 19 437 -15 q 636 123 591 54 m 343 479 l 570 205 q 481 119 534 151 q 359 87 427 87 q 289 100 323 87 q 229 134 255 112 q 186 187 202 155 q 171 255 171 218 q 184 332 171 300 q 222 391 198 365 q 277 438 245 418 q 343 479 308 459 "},"˝":{"x_min":-65.28125,"x_max":408.328125,"ha":308,"o":"m 262 1016 l 150 817 l 241 817 l 408 1016 l 262 1016 m 45 1016 l -65 817 l 25 817 l 191 1016 l 45 1016 "},"Ð":{"x_min":11,"x_max":925,"ha":978,"o":"m 240 565 l 240 881 l 462 881 q 616 855 554 881 q 718 780 679 829 q 775 660 758 730 q 793 501 793 590 q 774 345 793 409 q 726 237 755 280 q 660 169 697 194 q 585 131 623 144 q 515 114 548 117 q 459 111 481 111 l 240 111 l 240 471 l 537 471 l 537 565 l 240 565 m 108 471 l 108 0 l 448 0 q 662 34 572 0 q 811 135 752 69 q 897 298 869 201 q 925 519 925 394 q 801 875 925 758 q 448 992 677 992 l 108 992 l 108 565 l 11 565 l 11 471 l 108 471 "},"I":{"x_min":114,"x_max":246,"ha":360,"o":"m 114 992 l 114 0 l 246 0 l 246 992 l 114 992 "},"G":{"x_min":60,"x_max":968,"ha":1054,"o":"m 849 124 l 884 0 l 968 0 l 968 523 l 532 523 l 532 412 l 851 412 q 830 284 851 343 q 768 181 809 225 q 668 113 727 138 q 531 88 608 88 q 385 120 448 88 q 279 208 322 153 q 214 334 236 263 q 192 483 192 406 q 211 638 192 563 q 271 773 230 714 q 377 868 312 832 q 531 905 441 905 q 636 891 587 905 q 724 852 685 878 q 789 784 763 825 q 826 687 816 743 l 958 687 q 906 836 944 774 q 811 938 868 898 q 684 997 755 978 q 532 1016 612 1016 q 325 972 414 1016 q 178 854 237 928 q 89 683 119 781 q 60 476 60 585 q 91 289 60 379 q 184 129 123 198 q 333 18 245 59 q 531 -22 420 -22 q 705 12 619 -22 q 849 124 791 46 "},"`":{"x_min":-30.5625,"x_max":238.890625,"ha":308,"o":"m -30 1016 l 150 817 l 238 817 l 119 1016 l -30 1016 "},"·":{"x_min":104,"x_max":282,"ha":386,"o":"m 104 432 q 131 369 104 395 q 194 343 158 343 q 255 370 229 343 q 282 432 282 398 q 255 494 282 468 q 193 521 229 521 q 130 494 156 521 q 104 432 104 468 "},"r":{"x_min":85,"x_max":462.71875,"ha":463,"o":"m 85 718 l 85 0 l 203 0 l 203 319 q 216 442 203 389 q 261 533 230 496 q 341 590 291 571 q 462 610 391 610 l 462 736 q 304 695 366 736 q 198 567 241 654 l 196 567 l 196 718 l 85 718 "},"¿":{"x_min":94,"x_max":698,"ha":772,"o":"m 468 565 l 468 719 l 314 719 l 314 565 l 468 565 m 698 42 l 580 42 q 568 -46 580 -5 q 532 -119 557 -88 q 471 -167 508 -149 q 384 -186 435 -186 q 264 -142 308 -186 q 220 -23 220 -99 q 234 62 220 26 q 273 128 249 98 q 328 185 298 158 q 385 244 357 212 q 431 318 412 276 q 451 417 451 360 l 451 471 l 334 471 l 334 428 q 323 364 334 393 q 295 310 313 335 q 256 264 278 286 q 213 222 235 243 q 168 176 189 200 q 130 125 146 153 q 103 63 113 97 q 94 -12 94 29 q 115 -130 94 -78 q 175 -217 136 -181 q 268 -271 214 -252 q 386 -290 322 -290 q 516 -264 458 -290 q 615 -194 574 -238 q 677 -89 656 -149 q 698 42 698 -28 "},"ý":{"x_min":11.546875,"x_max":683.765625,"ha":694,"o":"m 382 1016 l 262 817 l 351 817 l 533 1016 l 382 1016 m 371 -94 l 683 719 l 558 719 l 357 131 l 354 131 l 144 719 l 11 719 l 296 4 l 247 -116 q 208 -165 231 -148 q 150 -182 186 -182 q 115 -176 132 -182 q 81 -165 97 -170 l 81 -273 q 121 -283 100 -280 q 162 -286 142 -286 q 232 -275 203 -286 q 285 -242 261 -265 q 330 -183 310 -219 q 371 -94 350 -147 "},"x":{"x_min":12.5,"x_max":706.953125,"ha":719,"o":"m 281 377 l 12 0 l 155 0 l 355 297 l 555 0 l 706 0 l 429 387 l 676 718 l 534 718 l 355 466 l 183 718 l 31 718 l 281 377 "},"è":{"x_min":51,"x_max":713.28125,"ha":745,"o":"m 186 1015 l 369 817 l 458 817 l 338 1015 l 186 1015 m 586 428 l 175 428 q 191 506 175 469 q 233 571 206 543 q 296 615 259 599 q 380 631 333 631 q 462 615 425 631 q 526 571 499 599 q 569 507 553 544 q 586 428 586 469 m 700 228 l 584 228 q 521 122 569 157 q 398 87 473 87 q 296 107 339 87 q 225 159 253 126 q 185 234 198 192 q 173 324 173 276 l 713 324 q 698 461 713 389 q 646 594 684 533 q 545 695 608 655 q 386 735 482 735 q 252 707 313 735 q 145 629 190 679 q 75 511 100 579 q 51 361 51 443 q 72 210 51 279 q 137 90 94 140 q 243 12 180 40 q 393 -15 307 -15 q 596 46 515 -15 q 700 228 677 107 "},"º":{"x_min":35,"x_max":499,"ha":534,"o":"m 267 916 q 313 909 289 916 q 358 885 338 903 q 391 835 378 867 q 405 753 405 803 q 397 693 405 722 q 373 643 389 665 q 331 609 357 622 q 268 597 306 597 q 204 609 230 597 q 161 644 177 622 q 136 695 144 666 q 129 754 129 723 q 168 877 129 838 q 267 916 208 916 m 267 985 q 167 966 211 985 q 94 917 123 948 q 50 844 65 886 q 35 754 35 803 q 50 663 35 704 q 96 591 66 622 q 169 544 126 561 q 268 528 212 528 q 440 591 382 528 q 499 754 499 654 q 483 845 499 803 q 439 919 468 887 q 367 967 410 950 q 267 985 323 985 "},"Ø":{"x_min":51.609375,"x_max":1004.390625,"ha":1056,"o":"m 1004 972 l 959 1014 l 850 893 q 711 984 791 952 q 527 1016 632 1016 q 321 972 409 1016 q 172 857 232 929 q 82 691 112 785 q 53 496 53 597 q 81 304 53 396 q 168 142 109 213 l 51 14 l 97 -26 l 210 96 q 347 9 268 40 q 528 -22 426 -22 q 734 20 646 -22 q 883 135 823 62 q 973 301 943 207 q 1003 496 1003 394 q 975 686 1003 596 q 890 848 948 775 l 1004 972 m 291 186 l 804 752 q 855 631 839 697 q 871 496 871 564 q 851 348 871 421 q 790 217 832 275 q 683 123 748 158 q 528 88 618 88 q 390 114 448 88 q 291 186 332 140 m 766 802 l 254 236 q 201 358 218 292 q 185 496 185 425 q 204 644 185 571 q 265 775 223 717 q 372 869 307 834 q 528 905 437 905 q 666 877 607 905 q 766 802 726 849 "},"÷":{"x_min":67,"x_max":767,"ha":834,"o":"m 328 65 q 355 3 328 29 q 418 -22 382 -22 q 479 5 453 -22 q 506 65 506 32 q 479 127 506 101 q 417 154 453 154 q 354 127 380 154 q 328 65 328 101 m 328 638 q 355 575 328 601 q 418 549 382 549 q 479 576 453 549 q 506 638 506 604 q 479 700 506 674 q 417 727 453 727 q 354 700 380 727 q 328 638 328 674 m 67 399 l 67 305 l 767 305 l 767 399 l 67 399 "},"h":{"x_min":89,"x_max":683,"ha":772,"o":"m 89 992 l 89 0 l 207 0 l 207 405 q 220 495 207 454 q 259 567 233 536 q 325 614 286 597 q 419 631 365 631 q 526 592 487 631 q 565 486 565 553 l 565 0 l 683 0 l 683 472 q 671 578 683 530 q 630 661 659 626 q 553 715 601 696 q 435 735 506 735 q 370 728 404 735 q 304 706 336 721 q 248 669 273 692 q 209 613 223 646 l 207 613 l 207 992 l 89 992 "},"\b":{"x_min":0,"x_max":0,"ha":0},".":{"x_min":115,"x_max":269,"ha":386,"o":"m 115 154 l 115 0 l 269 0 l 269 154 l 115 154 "},";":{"x_min":115,"x_max":269,"ha":386,"o":"m 269 564 l 269 718 l 115 718 l 115 564 l 269 564 m 115 154 l 115 0 l 196 0 q 194 -36 198 -16 q 181 -74 191 -55 q 155 -109 171 -93 q 116 -133 139 -125 l 116 -202 q 232 -122 195 -179 q 269 13 269 -65 l 269 154 l 115 154 "},"f":{"x_min":17,"x_max":412.9375,"ha":412,"o":"m 138 614 l 138 0 l 256 0 l 256 614 l 395 614 l 395 718 l 256 718 l 256 818 q 279 882 256 865 q 346 899 303 899 q 379 896 361 899 q 412 889 397 894 l 412 991 q 374 1000 396 997 q 336 1003 353 1003 q 188 957 239 1003 q 138 825 138 912 l 138 718 l 17 718 l 17 614 l 138 614 "},"“":{"x_min":92,"x_max":500,"ha":592,"o":"m 246 634 l 246 788 l 164 788 q 167 836 164 811 q 180 879 171 860 q 205 911 190 899 q 245 923 221 923 l 245 992 q 176 975 206 992 q 128 930 147 958 q 101 866 110 903 q 92 788 92 829 l 92 634 l 246 634 m 500 634 l 500 788 l 418 788 q 421 836 418 811 q 434 879 425 860 q 459 911 444 899 q 499 923 475 923 l 499 992 q 430 975 460 992 q 382 930 401 958 q 355 866 364 903 q 346 788 346 829 l 346 634 l 500 634 "},"̇":{"x_min":-215,"x_max":-90,"ha":0,"o":"m -90 823 l -90 968 l -215 968 l -215 823 l -90 823 "},"A":{"x_min":-8.328125,"x_max":911.109375,"ha":900,"o":"m 279 410 l 447 873 l 450 873 l 615 410 l 279 410 m 377 992 l -8 0 l 126 0 l 237 299 l 656 299 l 765 0 l 911 0 l 523 992 l 377 992 "},"6":{"x_min":53,"x_max":721,"ha":772,"o":"m 575 734 l 693 734 q 609 920 682 856 q 415 985 537 985 q 240 940 309 985 q 129 822 171 896 q 70 653 87 748 q 53 457 53 558 q 64 296 53 379 q 112 143 76 212 q 215 29 148 73 q 391 -15 282 -15 q 548 16 484 -15 q 649 95 611 47 q 704 201 687 143 q 721 314 721 260 q 700 440 721 382 q 641 542 679 499 q 546 609 602 585 q 419 634 490 634 q 277 603 338 634 q 173 504 215 572 l 171 507 q 180 629 171 564 q 216 751 190 695 q 288 844 242 807 q 409 881 334 881 q 523 840 480 881 q 575 734 566 800 m 397 530 q 484 511 447 530 q 547 463 522 493 q 584 393 572 434 q 596 306 596 352 q 582 223 596 263 q 544 153 569 183 q 482 105 519 122 q 397 87 445 87 q 310 105 348 87 q 246 151 272 122 q 206 221 220 180 q 193 307 193 261 q 206 394 193 353 q 245 465 219 435 q 309 512 272 495 q 397 530 347 530 "},"‘":{"x_min":117,"x_max":271,"ha":386,"o":"m 271 634 l 271 788 l 189 788 q 192 836 189 811 q 205 879 196 860 q 230 911 215 899 q 270 923 246 923 l 270 992 q 201 975 231 992 q 153 930 172 958 q 126 866 135 903 q 117 788 117 829 l 117 634 l 271 634 "},"O":{"x_min":53,"x_max":1003,"ha":1056,"o":"m 185 496 q 204 644 185 571 q 265 775 223 717 q 372 869 307 834 q 528 905 437 905 q 683 869 618 905 q 790 775 748 834 q 851 644 832 717 q 871 496 871 571 q 851 348 871 421 q 790 217 832 275 q 683 123 748 158 q 528 88 618 88 q 372 123 437 88 q 265 217 307 158 q 204 348 223 275 q 185 496 185 421 m 53 496 q 82 301 53 394 q 172 135 112 207 q 321 20 232 62 q 528 -22 409 -22 q 734 20 646 -22 q 883 135 823 62 q 973 301 943 207 q 1003 496 1003 394 q 973 691 1003 597 q 883 857 943 785 q 734 972 823 929 q 528 1016 646 1016 q 321 972 409 1016 q 172 857 232 929 q 82 691 112 785 q 53 496 53 597 "},"n":{"x_min":89,"x_max":683,"ha":772,"o":"m 89 718 l 89 0 l 207 0 l 207 405 q 220 495 207 454 q 259 566 233 536 q 325 614 286 597 q 419 631 365 631 q 526 591 487 631 q 565 485 565 552 l 565 0 l 683 0 l 683 472 q 671 578 683 530 q 630 661 659 626 q 553 715 601 696 q 435 735 506 735 q 202 604 276 735 l 200 604 l 200 718 l 89 718 "},"3":{"x_min":40,"x_max":708,"ha":772,"o":"m 303 562 l 303 462 q 373 467 336 467 q 456 455 418 467 q 522 419 494 443 q 566 359 549 394 q 583 278 583 323 q 565 198 583 233 q 518 138 548 162 q 450 101 489 114 q 368 87 411 87 q 213 148 266 87 q 161 305 161 208 l 40 305 q 62 168 40 228 q 128 67 85 108 q 233 5 171 26 q 369 -15 294 -15 q 500 3 438 -15 q 608 59 562 22 q 680 153 653 97 q 708 283 708 209 q 664 437 708 372 q 530 522 620 502 l 530 525 q 627 602 588 551 q 666 720 666 654 q 643 839 666 789 q 579 921 620 889 q 484 969 539 953 q 365 985 429 985 q 234 961 291 985 q 140 896 178 937 q 83 796 103 854 q 63 667 63 737 l 180 667 q 191 748 180 710 q 225 817 202 787 q 283 863 248 846 q 366 881 318 881 q 491 841 441 881 q 541 722 541 801 q 525 652 541 683 q 484 602 510 622 q 425 571 459 581 q 354 561 391 561 l 329 561 q 315 561 322 561 q 303 562 309 561 "},"̸":{"x_min":-484.71875,"x_max":26.390625,"ha":0,"o":"m -75 1016 l -484 -22 l -384 -22 l 26 1016 l -75 1016 "},"9":{"x_min":47,"x_max":708,"ha":772,"o":"m 185 238 l 67 238 q 160 47 78 110 q 366 -15 242 -15 q 626 121 545 -15 q 708 514 708 258 q 680 745 708 654 q 608 889 653 836 q 501 963 562 941 q 370 985 440 985 q 240 961 299 985 q 137 895 180 937 q 70 794 94 853 q 47 664 47 735 q 67 530 47 591 q 126 426 87 469 q 224 359 166 383 q 358 335 283 335 q 491 371 430 335 q 586 470 552 408 l 586 468 q 531 181 586 275 q 367 87 476 87 q 244 126 296 87 q 185 238 192 165 m 567 655 q 554 573 567 612 q 513 503 540 533 q 449 456 487 473 q 366 439 412 439 q 288 456 323 439 q 226 502 252 473 q 186 569 201 532 q 172 647 172 607 q 182 735 172 693 q 215 809 192 776 q 275 861 238 842 q 365 881 312 881 q 452 862 415 881 q 515 813 490 844 q 554 742 541 782 q 567 655 567 701 "},"l":{"x_min":96,"x_max":214,"ha":308,"o":"m 96 992 l 96 0 l 214 0 l 214 992 l 96 992 "},"¤":{"x_min":34.828125,"x_max":737.171875,"ha":772,"o":"m 390 728 q 479 708 438 728 q 550 656 520 689 q 597 579 580 623 q 615 487 615 536 q 597 392 615 437 q 550 315 580 348 q 478 263 520 282 q 388 244 437 244 q 297 262 340 244 q 224 313 255 281 q 175 390 193 345 q 157 484 157 434 q 175 580 157 536 q 224 657 193 625 q 297 709 255 690 q 390 728 340 728 m 102 838 l 34 770 l 113 690 q 57 597 75 651 q 39 484 39 543 q 57 374 39 426 q 111 281 76 323 l 34 201 l 101 134 l 177 214 q 272 158 219 177 q 388 140 326 140 q 500 159 447 140 q 594 216 553 178 l 671 135 l 737 201 l 660 278 q 714 375 696 321 q 733 487 733 428 q 714 600 733 545 q 660 693 696 654 l 737 769 l 667 840 l 588 762 q 498 813 551 794 q 390 832 445 832 q 276 813 331 832 q 180 761 220 794 l 102 838 "},"4":{"x_min":39,"x_max":715,"ha":772,"o":"m 471 335 l 140 335 l 468 817 l 471 817 l 471 335 m 582 335 l 582 985 l 487 985 l 39 344 l 39 231 l 471 231 l 471 0 l 582 0 l 582 231 l 715 231 l 715 335 l 582 335 "},"p":{"x_min":93,"x_max":774,"ha":824,"o":"m 93 718 l 93 -274 l 211 -274 l 211 96 l 213 96 q 261 41 233 63 q 322 7 290 20 q 386 -10 354 -4 q 445 -15 419 -15 q 589 13 527 -15 q 692 93 651 42 q 753 212 733 144 q 774 356 774 280 q 753 501 774 433 q 691 621 732 569 q 588 704 650 673 q 443 735 526 735 q 305 707 368 735 q 213 621 242 680 l 211 621 l 211 718 l 93 718 m 649 365 q 637 262 649 312 q 601 173 626 212 q 535 110 576 134 q 433 87 494 87 q 329 109 372 87 q 258 170 286 132 q 219 257 231 208 q 206 359 206 306 q 218 458 206 409 q 256 545 230 507 q 325 607 283 583 q 426 631 366 631 q 525 608 483 631 q 595 548 568 586 q 635 463 622 511 q 649 365 649 415 "},"‡":{"x_min":58,"x_max":714,"ha":772,"o":"m 328 58 l 328 -214 l 439 -214 l 439 58 l 714 58 l 714 162 l 439 162 l 439 614 l 714 614 l 714 718 l 439 718 l 439 992 l 328 992 l 328 718 l 58 718 l 58 614 l 328 614 l 328 162 l 58 162 l 58 58 l 328 58 "},"à":{"x_min":50,"x_max":725,"ha":746,"o":"m 187 1015 l 369 817 l 458 817 l 338 1015 l 187 1015 m 725 3 l 725 94 q 688 87 704 87 q 655 107 660 87 q 651 168 651 126 l 651 538 q 627 639 651 600 q 564 699 603 678 q 477 728 525 721 q 381 735 429 735 q 266 722 321 735 q 170 681 212 710 q 104 607 129 653 q 79 495 79 561 l 197 495 q 247 602 197 574 q 373 631 297 631 q 430 626 401 631 q 481 610 458 622 q 519 574 505 597 q 534 511 534 550 q 514 460 534 478 q 462 434 495 443 q 385 420 428 425 q 292 406 341 415 q 203 385 246 397 q 125 348 159 372 q 70 285 91 324 q 50 185 50 246 q 68 92 50 130 q 120 30 87 54 q 195 -4 152 5 q 287 -15 238 -15 q 426 10 362 -15 q 540 94 491 36 q 567 10 540 36 q 640 -15 594 -15 q 725 3 694 -15 m 533 371 l 533 250 q 520 196 533 225 q 481 144 508 168 q 413 103 455 119 q 313 87 372 87 q 261 93 287 87 q 217 111 236 98 q 186 144 198 123 q 175 193 175 164 q 195 263 175 237 q 247 303 215 289 q 319 323 279 317 q 399 334 359 329 q 474 346 438 339 q 533 371 510 354 "},"Ü":{"x_min":103,"x_max":900,"ha":1003,"o":"m 309 1213 l 309 1068 l 434 1068 l 434 1213 l 309 1213 m 570 1213 l 570 1068 l 695 1068 l 695 1213 l 570 1213 m 900 358 l 900 992 l 768 992 l 768 358 q 702 156 768 225 q 509 88 636 88 q 305 156 376 88 q 235 358 235 225 l 235 992 l 103 992 l 103 358 q 210 68 103 159 q 509 -22 318 -22 q 798 73 697 -22 q 900 358 900 168 "},"ó":{"x_min":50,"x_max":747,"ha":797,"o":"m 433 1015 l 313 817 l 402 817 l 584 1015 l 433 1015 m 175 358 q 192 474 175 424 q 240 560 209 525 q 311 612 270 594 q 398 631 352 631 q 485 612 444 631 q 556 560 526 594 q 604 474 587 525 q 622 358 622 424 q 604 242 622 293 q 556 157 587 192 q 485 105 526 123 q 398 87 444 87 q 311 105 352 87 q 240 157 270 123 q 192 242 209 192 q 175 358 175 293 m 50 358 q 72 211 50 279 q 138 92 94 143 q 248 13 183 41 q 398 -15 313 -15 q 549 13 484 -15 q 658 92 613 41 q 724 211 702 143 q 747 358 747 279 q 724 506 747 437 q 658 625 702 575 q 549 705 613 676 q 398 735 484 735 q 248 705 313 735 q 138 625 183 676 q 72 506 94 575 q 50 358 50 437 "},"\r":{"x_min":0,"x_max":0,"ha":386}}}
